<svg xmlns="http://www.w3.org/2000/svg" viewBox="0 0 512 512">
	<path fill="currentColor" d="M403.68 39.4C431.24 39.4 453.68 61.83 453.68 89.4L453.68 462C453.68 489.57 431.25 512 403.68 512L109 512C81.43 512 59 489.57 59 462L59 89.4C59 61.83 81.43 39.4 109 39.4L157.66 39.4L157.66 20C157.66 8.95 166.62 0 177.66 0L335 0C346.05 0 355 8.95 355 20L355 39.4L403.68 39.4ZM197.66 40C197.66 54.53 197.66 65.51 197.66 78.8L315 78.8L315 40L197.66 40ZM413.68 89.4C413.68 83.89 409.19 79.4 403.68 79.4L355 79.4L355 98.8C355 109.85 346.05 118.8 335 118.8L177.66 118.8C166.62 118.8 157.66 109.85 157.66 98.8L157.66 79.4L109 79.4C103.48 79.4 99 83.89 99 89.4L99 462C99 467.52 103.48 472 109 472L403.68 472C409.19 472 413.68 467.52 413.68 462L413.68 89.4Z" />
</svg>
