<svg viewBox="0 0 64 64" xmlns="http://www.w3.org/2000/svg">
  <title>Email</title>
  <path fill="currentColor" d="M64 15.13L64 48.88C64 52 61.46 54.5 58.38 54.5L5.63 54.5C2.54 54.5 0 51.99 0 48.88L0 15.13C0 12.03 2.52 9.5 5.63 9.5L58.38 9.5C61.49 9.5 64 12.04 64 15.13ZM6.41 13.25C8 14.83 27.56 34.29 28.02 34.74C29.09 35.81 30.5 36.39 32 36.39C33.5 36.39 34.91 35.81 35.98 34.75C36.66 34.07 56.44 14.39 57.59 13.25L6.41 13.25ZM19.95 32.01L3.75 15.89L3.75 48.11L19.95 32.01ZM57.58 50.75L41.39 34.65L38.63 37.4C36.86 39.17 34.5 40.14 32 40.14C29.5 40.14 27.14 39.17 25.37 37.4L22.61 34.65L6.42 50.75L57.58 50.75ZM60.25 15.89L44.05 32.01L60.25 48.11L60.25 15.89Z" />
</svg>
