
<svg xmlns="http://www.w3.org/2000/svg" viewBox="0 0 513 512">
	<title>Heart</title>
	<path fill="currentColor" d="M236.21 476.08C215.52 457.99 195.58 441 177.99 426L177.9 425.93C126.32 381.97 81.77 344.01 50.78 306.61C16.14 264.81 0 225.17 0 181.87C0 139.8 14.43 100.99 40.62 72.58C67.12 43.83 103.49 28 143.03 28C172.59 28 199.65 37.34 223.48 55.77C235.5 65.07 246.4 76.45 256 89.73C265.61 76.45 276.5 65.07 288.53 55.77C312.35 37.34 339.42 28 368.97 28C408.51 28 444.88 43.83 471.39 72.58C497.58 100.99 512 139.8 512 181.87C512 225.17 495.87 264.81 461.22 306.61C430.23 344.01 385.69 381.96 334.12 425.92C316.49 440.93 296.52 457.96 275.79 476.09C270.32 480.87 263.29 483.52 256 483.52C248.71 483.52 241.68 480.88 236.21 476.08ZM62.66 92.91C41.59 115.76 29.99 147.36 29.99 181.87C29.99 218.29 43.52 250.86 73.87 287.48C103.2 322.87 146.83 360.05 197.35 403.1L197.44 403.18C215.1 418.23 235.12 435.29 255.96 453.51C276.92 435.26 296.97 418.17 314.66 403.09C365.18 360.04 408.8 322.87 438.13 287.48C468.48 250.86 482.01 218.29 482.01 181.87C482.01 147.36 470.41 115.76 449.34 92.91C428.58 70.39 400.04 57.99 368.97 57.99C346.21 57.99 325.32 65.23 306.87 79.49C290.43 92.21 278.98 108.29 272.26 119.54C268.81 125.32 262.73 128.78 256 128.78C249.27 128.78 243.19 125.32 239.74 119.54C233.03 108.29 221.57 92.21 205.13 79.49C186.68 65.23 165.79 57.99 143.03 57.99C111.96 57.99 83.43 70.39 62.66 92.91Z" />
</svg>