<svg xmlns="http://www.w3.org/2000/svg" viewBox="0 0 32 32">
	<title>Help</title>
  <path fill="currentColor" d="M14.39 22.41L17.59 22.41L17.59 25.61L14.39 25.61L14.39 22.41ZM15.99 6.39C12.45 6.39 9.59 9.26 9.59 12.79L12.79 12.79C12.79 11.03 14.23 9.59 15.99 9.59C17.75 9.59 19.19 11.03 19.19 12.79C19.19 15.99 14.39 15.59 14.39 20.78L17.59 20.78C17.59 17.19 22.38 16.79 22.38 12.79C22.38 9.26 19.52 6.39 15.99 6.39Z" />
  <path fill="currentColor" d="M31.97 15.99C31.97 24.81 24.81 31.97 15.99 31.97C7.16 31.97 0 24.81 0 15.99C0 7.16 7.16 0 15.99 0C24.81 0 31.97 7.16 31.97 15.99ZM28.78 15.99C28.78 8.94 23.04 3.2 15.99 3.2C8.94 3.2 3.2 8.94 3.2 15.99C3.2 23.04 8.94 28.78 15.99 28.78C23.04 28.78 28.78 23.04 28.78 15.99Z" />
</svg>