<svg xmlns="http://www.w3.org/2000/svg" viewBox="0 0 32 32">
	<title>Light on</title>
  <g>
    <path fill="currentColor" d="M24.22 15.11C24.22 17.41 23.22 19.63 21.5 21.2C21.47 21.22 21.44 21.25 21.41 21.28C20.11 22.58 20.26 25.36 20.26 25.39C20.26 25.54 20.2 25.69 20.11 25.78C20.02 25.87 19.9 25.93 19.76 25.93L12.22 25.93C12.1 25.93 11.95 25.87 11.86 25.78C11.75 25.66 11.72 25.54 11.72 25.39C11.75 25.36 11.86 22.58 10.56 21.28C8.82 19.75 7.78 17.47 7.78 15.11C7.78 10.58 11.48 6.89 16 6.89C20.53 6.89 24.22 10.58 24.22 15.11ZM23.19 15.08C23.19 11.09 19.96 7.86 15.97 7.86C11.98 7.86 8.76 11.09 8.76 15.08C8.76 17.18 9.68 19.16 11.24 20.52C12.48 21.79 12.69 23.92 12.72 24.89L19.25 24.89C19.28 23.92 19.49 21.88 20.64 20.63C20.64 20.6 20.7 20.55 20.73 20.52C22.3 19.16 23.19 17.18 23.19 15.08Z" />
    <path fill="currentColor" d="M15.9 8.91C15.63 8.91 15.4 9.15 15.4 9.42C15.4 9.68 15.63 9.92 15.9 9.92C18.88 9.92 21.28 12.34 21.28 15.3C21.28 15.56 21.52 15.8 21.78 15.8C22.05 15.8 22.28 15.56 22.28 15.3C22.31 11.78 19.45 8.91 15.9 8.91Z" />
    <path fill="currentColor" d="M20.5 27.73C20.5 28.41 19.93 28.94 19.22 28.97L12.69 28.97C12.01 28.97 11.45 28.41 11.45 27.73C11.45 27.05 12.01 26.49 12.69 26.49L19.25 26.49C19.93 26.49 20.5 27.05 20.5 27.73ZM19.46 27.7C19.46 27.55 19.34 27.46 19.22 27.46L12.69 27.46C12.54 27.46 12.45 27.55 12.45 27.7C12.45 27.85 12.57 27.94 12.69 27.94L19.25 27.94C19.37 27.94 19.46 27.85 19.46 27.7Z" />
    <path fill="currentColor" d="M19.52 30.71C19.52 31.39 18.96 31.96 18.28 31.96L13.67 31.96C12.99 31.96 12.43 31.39 12.43 30.71C12.43 30.03 12.99 29.47 13.67 29.47L18.28 29.47C18.96 29.47 19.52 30 19.52 30.71ZM18.51 30.68C18.51 30.54 18.4 30.45 18.28 30.45L13.67 30.45C13.52 30.45 13.43 30.54 13.43 30.68C13.43 30.83 13.55 30.92 13.67 30.92L18.28 30.92C18.4 30.92 18.51 30.83 18.51 30.68Z" />
  </g>
  <g>
    <path fill="currentColor" d="M29.25 7.89C29.13 7.66 28.8 7.57 28.57 7.69L25.55 9.31C25.31 9.43 25.23 9.76 25.34 9.99C25.43 10.17 25.61 10.26 25.79 10.26C25.88 10.26 25.96 10.23 26.02 10.2L29.04 8.57C29.28 8.45 29.36 8.13 29.25 7.89Z" />
    <path fill="currentColor" d="M24.34 2.54C24.1 2.36 23.81 2.45 23.66 2.66L21.77 5.5C21.59 5.73 21.65 6.06 21.88 6.21C21.97 6.27 22.06 6.3 22.15 6.3C22.33 6.3 22.48 6.21 22.56 6.06L24.46 3.22C24.63 3.02 24.57 2.69 24.34 2.54Z" />
    <path fill="currentColor" d="M15.97 4.43C16.27 4.43 16.48 4.2 16.48 3.93L16.48 0.5C16.48 0.24 16.24 0 15.97 0C15.71 0 15.47 0.24 15.47 0.5L15.47 3.93C15.47 4.2 15.71 4.43 15.97 4.43Z" />
    <path fill="currentColor" d="M9.97 6.18C10.06 6.18 10.15 6.15 10.24 6.09C10.47 5.94 10.53 5.62 10.39 5.38L8.55 2.51C8.4 2.28 8.08 2.22 7.84 2.36C7.61 2.51 7.55 2.84 7.7 3.07L9.53 5.94C9.65 6.12 9.79 6.18 9.97 6.18Z" />
    <path fill="currentColor" d="M6.39 9.31L3.41 7.69C3.17 7.57 2.85 7.66 2.73 7.89C2.58 8.13 2.67 8.45 2.94 8.57L5.92 10.2C6.01 10.23 6.07 10.26 6.16 10.26C6.34 10.26 6.51 10.17 6.6 9.99C6.72 9.76 6.63 9.43 6.39 9.31Z" />
  </g>
</svg>