<svg xmlns="http://www.w3.org/2000/svg" viewBox="0 0 32 32">
	<title>Light off</title>
  <g>
    <path fill="currentColor" d="M24.22 15.11C24.22 17.41 23.22 19.63 21.5 21.2C21.47 21.22 21.44 21.25 21.41 21.28C20.11 22.58 20.26 25.36 20.26 25.39C20.26 25.54 20.2 25.69 20.11 25.78C20.02 25.87 19.9 25.93 19.76 25.93L12.22 25.93C12.1 25.93 11.95 25.87 11.86 25.78C11.75 25.66 11.72 25.54 11.72 25.39C11.75 25.36 11.86 22.58 10.56 21.28C8.82 19.75 7.78 17.47 7.78 15.11C7.78 10.58 11.48 6.89 16 6.89C20.53 6.89 24.22 10.58 24.22 15.11ZM23.19 15.08C23.19 11.09 19.96 7.86 15.97 7.86C11.98 7.86 8.76 11.09 8.76 15.08C8.76 17.18 9.68 19.16 11.24 20.52C12.48 21.79 12.69 23.92 12.72 24.89L19.25 24.89C19.28 23.92 19.49 21.88 20.64 20.63C20.64 20.6 20.7 20.55 20.73 20.52C22.3 19.16 23.19 17.18 23.19 15.08Z" />
    <path fill="currentColor" d="M20.5 27.73C20.5 28.41 19.93 28.94 19.22 28.97L12.69 28.97C12.01 28.97 11.45 28.41 11.45 27.73C11.45 27.05 12.01 26.49 12.69 26.49L19.25 26.49C19.93 26.49 20.5 27.05 20.5 27.73ZM19.46 27.7C19.46 27.55 19.34 27.46 19.22 27.46L12.69 27.46C12.54 27.46 12.45 27.55 12.45 27.7C12.45 27.85 12.57 27.94 12.69 27.94L19.25 27.94C19.37 27.94 19.46 27.85 19.46 27.7Z" />
    <path fill="currentColor" d="M19.52 30.71C19.52 31.39 18.96 31.96 18.28 31.96L13.67 31.96C12.99 31.96 12.43 31.39 12.43 30.71C12.43 30.03 12.99 29.47 13.67 29.47L18.28 29.47C18.96 29.47 19.52 30 19.52 30.71ZM18.51 30.68C18.51 30.54 18.4 30.45 18.28 30.45L13.67 30.45C13.52 30.45 13.43 30.54 13.43 30.68C13.43 30.83 13.55 30.92 13.67 30.92L18.28 30.92C18.4 30.92 18.51 30.83 18.51 30.68Z" />
  </g>
</svg>