<svg xmlns="http://www.w3.org/2000/svg" viewBox="0 0 203 203">
	<title>Moon</title>
	<path fill-rule="evenodd" fill="currentColor" d="M202.45 127.85C196.35 149 183.41 168.03 166 181.45C147.93 195.38 126.29 202.74 103.43 202.74C46.4 202.74 0 156.33 0 99.3C0 76.44 7.36 54.81 21.29 36.75C34.71 19.35 53.76 6.41 74.92 0.31C77.86 -0.54 81.03 0.49 82.91 2.9C84.8 5.31 85.02 8.63 83.49 11.28C76.25 23.75 72.58 37.02 72.58 50.71C72.58 94.52 108.22 130.16 152.02 130.16C165.65 130.16 178.94 126.49 191.51 119.27C194.16 117.74 197.47 117.98 199.88 119.87C202.28 121.75 203.3 124.91 202.45 127.85ZM181.37 140.28C171.84 143.52 162.02 145.16 152.02 145.16C99.95 145.16 57.58 102.79 57.58 50.71C57.58 40.7 59.21 30.9 62.44 21.41C33.83 36.46 15 66.4 15 99.3C15 148.06 54.67 187.73 103.43 187.73C136.36 187.73 166.32 168.9 181.37 140.28Z" />
</svg>