<svg xmlns="http://www.w3.org/2000/svg" viewBox="0 0 80 80">
  <title>Rainbow</title>
  <path fill="currentColor" d="M80 58.02C80 59.69 78.65 61.03 76.99 61.03C75.32 61.03 73.97 59.69 73.97 58.02C73.97 39.29 58.73 24.05 40 24.05C21.27 24.05 6.03 39.29 6.03 58.02C6.03 59.69 4.68 61.03 3.01 61.03C1.35 61.03 0 59.69 0 58.02C0 35.97 17.95 18.02 40 18.02C62.05 18.02 80 35.97 80 58.02ZM40 28.89C56.06 28.89 69.13 41.96 69.13 58.02C69.13 59.69 67.78 61.03 66.12 61.03C64.45 61.03 63.1 59.69 63.1 58.02C63.1 45.28 52.74 34.91 40 34.91C27.25 34.91 16.88 45.28 16.88 58.02C16.88 59.69 15.54 61.03 13.87 61.03C12.2 61.03 10.86 59.69 10.86 58.02C10.86 41.96 23.93 28.89 40 28.89ZM40 40.33C49.75 40.33 57.69 48.27 57.69 58.02C57.69 59.69 56.34 61.03 54.68 61.03C53.01 61.03 51.67 59.69 51.67 58.02C51.67 51.59 46.43 46.36 40 46.36C33.56 46.36 28.33 51.59 28.33 58.02C28.33 59.69 26.98 61.03 25.32 61.03C23.65 61.03 22.3 59.69 22.3 58.02C22.3 48.27 30.24 40.33 40 40.33Z" />
</svg>
