<svg xmlns="http://www.w3.org/2000/svg" viewBox="0 0 100 100">
  <title>Refresh</title>
  <path fill="currentColor" d="M93.31 49.76L81.68 67.21L70.04 49.76L77.32 49.76C77.31 43.13 74.95 37.03 71.04 32.26C71.02 32.24 71.01 32.22 70.99 32.2C68.21 28.83 64.64 26.14 60.57 24.39C60.5 24.36 60.44 24.33 60.37 24.3C59.69 24.01 59 23.77 58.29 23.54C58.1 23.47 57.91 23.4 57.72 23.34C57.1 23.16 56.47 23 55.84 22.86C55.56 22.8 55.28 22.72 55 22.67C54.36 22.54 53.71 22.45 53.05 22.37C52.81 22.34 52.56 22.3 52.32 22.28C51.52 22.2 50.71 22.16 49.89 22.16C44.19 22.1 38.62 23.8 33.85 27.14C31.87 28.52 29.15 28.04 27.77 26.07C26.39 24.09 26.87 21.37 28.84 19.99C35.02 15.66 42.21 13.44 49.6 13.43C49.63 13.43 49.66 13.42 49.69 13.42C49.86 13.42 50.03 13.44 50.21 13.44C51.17 13.46 52.13 13.5 53.09 13.59C53.49 13.63 53.88 13.69 54.28 13.74C54.86 13.82 55.43 13.86 56.01 13.96C56.22 14 56.42 14.06 56.63 14.1C57.06 14.19 57.48 14.29 57.91 14.39C58.68 14.57 59.44 14.75 60.2 14.98C60.51 15.08 60.82 15.19 61.13 15.29C61.99 15.58 62.85 15.88 63.69 16.23C63.83 16.29 63.98 16.36 64.12 16.42C69.37 18.69 74.01 22.14 77.69 26.62C77.76 26.7 77.82 26.78 77.88 26.86C78.43 27.53 78.97 28.2 79.47 28.91C79.54 29.01 79.58 29.11 79.64 29.21C83.67 35.06 86.04 42.14 86.04 49.76L93.31 49.76ZM71.61 73.46C73 75.44 72.51 78.16 70.54 79.54C64.36 83.87 57.15 86.13 49.76 86.13C48.55 86.13 47.34 86.05 46.13 85.93C45.88 85.91 45.65 85.86 45.4 85.84C44.73 85.76 44.05 85.69 43.38 85.57C43.18 85.53 42.99 85.48 42.79 85.44C42.31 85.34 41.83 85.22 41.36 85.11C40.64 84.94 39.93 84.77 39.24 84.56C38.86 84.45 38.49 84.32 38.11 84.19C37.32 83.93 36.53 83.65 35.76 83.33C35.54 83.23 35.32 83.13 35.1 83.03C34.19 82.64 33.31 82.22 32.45 81.75C32.37 81.71 32.29 81.66 32.21 81.61C29.22 79.98 26.47 77.93 24.04 75.49C23.97 75.42 23.9 75.35 23.84 75.28C23.11 74.54 22.41 73.78 21.75 72.98C21.57 72.77 21.42 72.55 21.25 72.33C20.8 71.77 20.33 71.21 19.91 70.61C19.86 70.53 19.82 70.45 19.77 70.36C15.72 64.5 13.33 57.41 13.33 49.76L6.06 49.76L17.7 32.31L29.33 49.76L22.06 49.76C22.06 56.27 24.34 62.25 28.12 66.97C28.23 67.11 28.33 67.26 28.44 67.39C28.97 68.02 29.52 68.63 30.09 69.21C30.12 69.24 30.15 69.27 30.18 69.3C32.03 71.16 34.15 72.74 36.47 74.01C36.5 74.02 36.53 74.04 36.56 74.06C37.24 74.43 37.94 74.76 38.66 75.08C38.8 75.14 38.93 75.2 39.07 75.26C39.68 75.51 40.31 75.74 40.94 75.95C41.2 76.03 41.46 76.13 41.73 76.21C42.27 76.37 42.83 76.5 43.39 76.63C43.74 76.72 44.08 76.8 44.43 76.87C45.01 76.98 45.59 77.07 46.18 77.14C46.49 77.18 46.79 77.23 47.1 77.26C47.84 77.33 48.6 77.36 49.36 77.37C55.11 77.45 60.73 75.76 65.54 72.39C67.5 71.01 70.23 71.49 71.61 73.46Z" />
</svg>
