<svg xmlns="http://www.w3.org/2000/svg" viewBox="0 0 384 384">
	<title>Sun</title>
	<path fill="currentColor" d="M101.49 78.86L78.86 56.24C72.62 49.99 62.48 49.99 56.24 56.24C49.99 62.49 49.99 72.62 56.24 78.86L78.86 101.49C81.98 104.62 86.08 106.18 90.18 106.18C94.27 106.18 98.37 104.62 101.49 101.49C107.74 95.24 107.74 85.11 101.49 78.86Z" />
	<path fill="currentColor" d="M48 176L16 176C7.17 176 0 183.17 0 192C0 200.83 7.17 208 16 208L48 208C56.83 208 64 200.83 64 192C64 183.17 56.83 176 48 176Z" />
	<path fill="currentColor" d="M101.49 282.51C95.25 276.26 85.1 276.26 78.86 282.51L56.24 305.14C49.99 311.38 49.99 321.51 56.24 327.76C59.36 330.89 63.46 332.45 67.55 332.45C71.65 332.45 75.74 330.89 78.86 327.76L101.49 305.14C107.74 298.89 107.74 288.76 101.49 282.51Z" />
	<path fill="currentColor" d="M192 320C183.17 320 176 327.17 176 336L176 368C176 376.83 183.17 384 192 384C200.83 384 208 376.83 208 368L208 336C208 327.17 200.83 320 192 320Z" />
	<path fill="currentColor" d="M327.76 305.14L305.14 282.51C298.9 276.26 288.75 276.26 282.51 282.51C276.26 288.76 276.26 298.89 282.51 305.14L305.14 327.76C308.26 330.89 312.35 332.45 316.45 332.45C320.54 332.45 324.64 330.89 327.76 327.76C334.01 321.51 334.01 311.38 327.76 305.14Z" />
	<path fill="currentColor" d="M368 176L336 176C327.17 176 320 183.17 320 192C320 200.83 327.17 208 336 208L368 208C376.83 208 384 200.83 384 192C384 183.17 376.83 176 368 176Z" />
	<path fill="currentColor" d="M327.76 56.24C321.52 49.99 311.38 49.99 305.14 56.24L282.51 78.86C276.26 85.11 276.26 95.24 282.51 101.49C285.63 104.62 289.73 106.18 293.82 106.18C297.92 106.18 302.02 104.62 305.14 101.49L327.76 78.86C334.01 72.62 334.01 62.49 327.76 56.24Z" />
	<path fill="currentColor" d="M192 0C183.17 0 176 7.17 176 16L176 48C176 56.83 183.17 64 192 64C200.83 64 208 56.83 208 48L208 16C208 7.17 200.83 0 192 0Z" />
	<path fill="currentColor" d="M296 192C296 249.34 249.34 296 192 296C134.66 296 88 249.34 88 192C88 134.66 134.66 88 192 88C249.34 88 296 134.66 296 192ZM264 192C264 152.3 231.7 120 192 120C152.3 120 120 152.3 120 192C120 231.7 152.3 264 192 264C231.7 264 264 231.7 264 192Z" />
</svg>