<svg xmlns="http://www.w3.org/2000/svg" viewBox="0 0 32 32">
  <title>Tag</title>
  <path fill="currentColor" d="M31.97 18.91C31.97 19.65 31.71 20.28 31.19 20.8L20.83 31.19C20.28 31.71 19.64 31.97 18.91 31.97C18.16 31.97 17.53 31.71 17.01 31.19L1.92 16.08C1.39 15.56 0.93 14.85 0.56 13.95C0.19 13.05 0 12.22 0 11.48L0 2.7C0 1.97 0.27 1.34 0.8 0.8C1.34 0.27 1.97 0 2.7 0L11.48 0C12.22 0 13.05 0.19 13.95 0.56C14.85 0.93 15.56 1.39 16.1 1.92L31.19 16.99C31.71 17.53 31.97 18.17 31.97 18.91ZM9.45 6.75C9.45 6.01 9.19 5.37 8.66 4.84C8.13 4.32 7.5 4.05 6.75 4.05C6.01 4.05 5.37 4.32 4.84 4.84C4.31 5.37 4.05 6.01 4.05 6.75C4.05 7.5 4.31 8.13 4.84 8.66C5.37 9.19 6.01 9.45 6.75 9.45C7.5 9.45 8.13 9.19 8.66 8.66C9.19 8.13 9.45 7.5 9.45 6.75Z" />
</svg>