<svg version="1.2" xmlns="http://www.w3.org/2000/svg" viewBox="0 0 633 126">
  <title>Phork/it by phork.works</title>
  <defs>
    <linearGradient id="phorkitGradientComplete" gradientUnits="userSpaceOnUse" x1="137.297" y1="0.001" x2="27.153" y2="92.422">
      <stop offset="0" stop-color="#ff3232" />
      <stop offset="1" stop-color="#f41150" />
    </linearGradient>
    <linearGradient id="phorkitGradientBottom3" gradientUnits="userSpaceOnUse" x1="31.927" y1="20.045" x2="104.304" y2="92.421">
      <stop offset="0" stop-color="#ff3232" />
      <stop offset="1" stop-color="#ff6020" />
    </linearGradient>
    <linearGradient id="phorkitGradientBottom2" gradientUnits="userSpaceOnUse" x1="32.79" y1="42.238" x2="82.976" y2="92.424">
      <stop offset="0" stop-color="#ff8e0d" />
      <stop offset="0.74" stop-color="#fca60a" />
    </linearGradient>
    <linearGradient id="phorkitGradientTop3" gradientUnits="userSpaceOnUse" x1="0.085" y1="35.988" x2="135.986" y2="35.988">
      <stop offset="0" stop-color="#ff8e0d" />
      <stop offset="1" stop-color="#ff6020" />
    </linearGradient>
    <linearGradient id="phorkitGradientTop2" gradientUnits="userSpaceOnUse" x1="83.658" y1="49.786" x2="32.103" y2="0.001">
      <stop offset="0" stop-color="#ffffff" />
      <stop offset="1" stop-color="#ffffff" stop-opacity="0" />
    </linearGradient>
  </defs>
  <style>
		.phorkitComplete { fill: url(#phorkitGradientComplete) }
		.phorkitBottom3 { fill: url(#phorkitGradientBottom3) }
		.phorkitBottom2 { fill: url(#phorkitGradientBottom2) }
		.phorkitTop3 { opacity: 0.4; fill: url(#phorkitGradientTop3) }
		.phorkitTop4 { opacity: 0.1; fill: url(#phorkitGradientTop2) }
  </style>
  <g>
    <path class="phorkitComplete" d="M87.33 90.98C104.01 94.23 121.89 92.35 133.98 81.65L159.88 55.72C165.97 49.62 166.37 42.75 158.66 35.31L133.99 10.57C121.9 -0.49 104.06 -1.4 87.33 1.24L5.24 15.92C-1.37 17.1 -1.47 25.58 5.19 24.84C20.55 23.13 83.69 20.1 83.69 20.1C89.61 19.93 89.44 27.33 83.86 27.49L5.19 32.73C-1.46 33.47 -1.37 41.85 5.27 41.59L83.45 42.36C89.69 42.53 89.52 49.76 83.45 49.75C76.54 49.76 4.86 50.53 4.76 50.53C-1.48 50.69 -1.52 59.26 4.94 59.41C4.94 59.41 82.69 64.53 82.95 64.55C89.36 64.88 89.61 72.52 83.53 72.19C83.53 72.19 4.99 67.26 4.89 67.25C-1.64 66.89 -1.52 75.23 4.57 76.05L87.33 90.98Z" />
    <path class="phorkitBottom3" d="M87.33 90.98C104.01 94.23 121.89 92.35 133.98 81.65L135.34 80.29C138.37 64.36 133.71 47.27 121.36 34.92C110.4 23.96 95.7 19.05 81.39 20.21C82.87 20.14 83.69 20.1 83.69 20.1C89.61 19.93 89.44 27.33 83.86 27.49L5.19 32.73C-1.46 33.47 -1.37 41.85 5.27 41.59L83.45 42.36C89.69 42.53 89.52 49.76 83.45 49.75C76.54 49.76 4.86 50.53 4.76 50.53C-1.48 50.69 -1.52 59.26 4.94 59.41C4.94 59.41 82.69 64.53 82.95 64.55C89.36 64.88 89.61 72.52 83.53 72.19C83.53 72.19 4.99 67.26 4.89 67.25C-1.64 66.89 -1.52 75.23 4.57 76.05L87.33 90.98Z" />
    <path class="phorkitBottom2" d="M87.33 90.98C95.44 92.56 103.85 92.93 111.73 91.65C118.62 78.97 116.69 62.79 105.95 52.05C98.77 44.87 89.17 41.63 79.81 42.33L83.45 42.36C89.69 42.53 89.52 49.76 83.45 49.75C76.54 49.76 4.86 50.53 4.76 50.53C-1.48 50.69 -1.52 59.26 4.94 59.41C4.94 59.41 82.69 64.53 82.95 64.55C89.36 64.88 89.61 72.52 83.53 72.19C83.53 72.19 4.99 67.26 4.89 67.25C-1.64 66.89 -1.52 75.23 4.57 76.05L87.33 90.98Z" />
    <path class="phorkitTop3" d="M133.99 10.57C121.9 -0.49 104.06 -1.4 87.33 1.24L5.24 15.92C-1.37 17.1 -1.47 25.58 5.19 24.84C20.55 23.13 83.69 20.1 83.69 20.1C89.61 19.93 89.44 27.33 83.86 27.49L5.19 32.73C-1.46 33.47 -1.37 41.85 5.27 41.59L83.45 42.36C89.69 42.53 89.52 49.76 83.45 49.75C76.54 49.76 4.86 50.53 4.76 50.53C-1.48 50.69 -1.52 59.26 4.94 59.41C4.94 59.41 82.69 64.53 82.95 64.55C88.57 64.84 89.46 70.75 85.48 71.98C98.38 71.92 111.26 66.96 121.11 57.1C133.48 44.74 138.13 27.62 135.08 11.67L133.99 10.57Z" />
    <path class="phorkitTop4" d="M111.63 0.65C118.34 13.3 116.37 29.31 105.71 39.97C99.72 45.95 92.06 49.2 84.25 49.71C89.53 49.1 89.4 42.52 83.45 42.36L5.27 41.59C-1.37 41.85 -1.46 33.47 5.19 32.73L83.86 27.49C89.44 27.33 89.61 19.93 83.69 20.1C83.69 20.1 20.55 23.13 5.19 24.84C-1.47 25.58 -1.37 17.1 5.24 15.92L87.33 1.24C95.43 -0.04 103.79 -0.48 111.63 0.65ZM80.99 49.77C82.08 49.76 82.91 49.76 83.41 49.76C82.6 49.79 81.8 49.79 80.99 49.77Z" />
  </g>
  <path fill="#000" d="M317.12 125C316.95 125 316.82 124.95 316.73 124.86C316.63 124.76 316.58 124.63 316.58 124.47L316.58 100.59C316.58 100.24 316.76 100.07 317.12 100.07L326.43 100.07C327.78 100.07 328.96 100.34 329.98 100.89C331 101.43 331.78 102.19 332.32 103.16C332.87 104.12 333.14 105.21 333.14 106.42C333.14 107.2 332.98 107.96 332.66 108.7C332.35 109.42 331.92 110.06 331.38 110.61C330.84 111.16 330.23 111.56 329.55 111.82C330.46 112.01 331.29 112.4 332.04 113.01C332.78 113.61 333.37 114.36 333.81 115.26C334.25 116.16 334.47 117.13 334.47 118.17C334.47 119.51 334.16 120.69 333.55 121.74C332.93 122.76 332.09 123.57 331.03 124.15C329.96 124.72 328.78 125 327.48 125L317.12 125ZM326.34 111.14C327.18 111.14 327.96 110.94 328.68 110.52C329.42 110.11 330 109.55 330.42 108.84C330.86 108.13 331.08 107.35 331.08 106.51C331.08 105.66 330.88 104.89 330.49 104.19C330.12 103.48 329.57 102.92 328.84 102.52C328.13 102.11 327.31 101.9 326.36 101.9L318.64 101.9L318.64 111.14L326.34 111.14ZM327.35 123.17C328.3 123.17 329.15 122.95 329.91 122.52C330.68 122.07 331.28 121.45 331.72 120.67C332.16 119.88 332.37 118.99 332.37 118.01C332.37 117.08 332.15 116.22 331.7 115.44C331.25 114.64 330.61 114.02 329.78 113.56C328.97 113.1 328.03 112.86 326.96 112.86L318.64 112.86L318.64 123.17L327.35 123.17ZM346 124.47C346 124.82 345.83 125 345.49 125L344.44 125C344.27 125 344.14 124.95 344.05 124.86C343.95 124.76 343.91 124.63 343.91 124.47L343.91 114.18L335.75 100.69C335.69 100.6 335.66 100.5 335.66 100.41C335.66 100.18 335.8 100.07 336.1 100.07L337.4 100.07C337.68 100.07 337.89 100.19 338.02 100.43L344.97 112.15L351.87 100.43C352 100.19 352.22 100.07 352.51 100.07L353.81 100.07C353.96 100.07 354.07 100.1 354.14 100.16C354.23 100.22 354.27 100.3 354.27 100.39C354.27 100.49 354.23 100.59 354.16 100.69L346 114.16L346 124.47ZM365.65 124.28L365.65 101.23C365.65 100.99 365.72 100.81 365.86 100.68C366 100.55 366.16 100.49 366.36 100.49L376.95 100.49C377.7 100.49 378.41 100.6 379.08 100.82C379.75 101.02 380.37 101.31 380.93 101.68C381.51 102.04 382.02 102.48 382.46 103C382.91 103.5 383.29 104.05 383.6 104.65C383.92 105.25 384.16 105.88 384.32 106.54C384.49 107.19 384.58 107.85 384.58 108.52C384.58 109.51 384.39 110.49 384.03 111.44C383.67 112.38 383.16 113.22 382.5 113.97C381.84 114.71 381.05 115.31 380.13 115.77C379.21 116.22 378.19 116.44 377.07 116.44L372.01 116.44L372.01 124.28C372.01 124.76 371.76 125 371.26 125L366.36 125C365.89 125 365.65 124.76 365.65 124.28ZM375.57 105.73L372.01 105.73L372.01 111.23L375.57 111.23C375.97 111.23 376.33 111.16 376.64 111.01C376.96 110.85 377.22 110.64 377.43 110.39C377.64 110.13 377.81 109.83 377.93 109.5C378.04 109.16 378.1 108.83 378.1 108.48C378.1 108.15 378.04 107.82 377.93 107.5C377.81 107.17 377.64 106.87 377.43 106.61C377.21 106.35 376.94 106.13 376.62 105.97C376.31 105.81 375.96 105.73 375.57 105.73ZM402.8 124.28L402.8 114.89L394.51 114.89L394.51 124.28C394.51 124.76 394.25 125 393.72 125L388.87 125C388.39 125 388.15 124.76 388.15 124.28L388.15 101.23C388.15 101.03 388.21 100.86 388.32 100.71C388.45 100.57 388.63 100.49 388.87 100.49L393.82 100.49C393.96 100.49 394.11 100.54 394.27 100.63C394.43 100.71 394.51 100.9 394.51 101.2L394.51 109.07L402.8 109.07L402.8 101.23C402.8 101.03 402.85 100.86 402.97 100.71C403.09 100.57 403.28 100.49 403.52 100.49L408.47 100.49C408.61 100.49 408.75 100.54 408.91 100.63C409.07 100.71 409.16 100.9 409.16 101.2L409.16 124.28C409.16 124.76 408.89 125 408.36 125L403.52 125C403.04 125 402.8 124.76 402.8 124.28ZM413.4 112.75C413.4 111.59 413.55 110.47 413.85 109.39C414.15 108.32 414.57 107.31 415.12 106.39C415.67 105.45 416.33 104.59 417.1 103.83C417.86 103.06 418.71 102.4 419.64 101.85C420.58 101.3 421.59 100.87 422.66 100.58C423.74 100.28 424.86 100.13 426.02 100.13C427.17 100.13 428.29 100.28 429.37 100.58C430.44 100.87 431.45 101.3 432.38 101.85C433.32 102.4 434.17 103.06 434.94 103.83C435.7 104.59 436.36 105.45 436.91 106.39C437.46 107.31 437.89 108.32 438.18 109.39C438.48 110.47 438.63 111.59 438.63 112.75C438.63 113.9 438.48 115.02 438.18 116.1C437.89 117.17 437.46 118.18 436.91 119.1C436.36 120.03 435.7 120.88 434.94 121.65C434.17 122.42 433.32 123.08 432.38 123.63C431.45 124.17 430.44 124.6 429.37 124.9C428.29 125.19 427.17 125.34 426.02 125.34C424.27 125.34 422.64 125.02 421.1 124.36C419.58 123.7 418.24 122.8 417.1 121.67C415.95 120.52 415.04 119.18 414.38 117.66C413.73 116.13 413.4 114.49 413.4 112.75ZM419.74 112.75C419.74 113.65 419.9 114.5 420.21 115.31C420.53 116.1 420.96 116.79 421.51 117.39C422.07 117.97 422.74 118.43 423.51 118.78C424.27 119.12 425.11 119.29 426.02 119.29C426.92 119.29 427.76 119.12 428.53 118.78C429.29 118.43 429.96 117.97 430.52 117.39C431.08 116.79 431.52 116.1 431.83 115.31C432.13 114.5 432.29 113.65 432.29 112.75C432.29 111.84 432.13 110.99 431.83 110.2C431.52 109.4 431.08 108.7 430.52 108.1C429.96 107.51 429.29 107.04 428.53 106.71C427.76 106.37 426.92 106.2 426.02 106.2C425.11 106.2 424.27 106.37 423.51 106.71C422.74 107.04 422.07 107.51 421.51 108.1C420.96 108.7 420.53 109.4 420.21 110.2C419.9 110.99 419.74 111.84 419.74 112.75ZM442.69 124.28L442.69 101.23C442.69 101.05 442.75 100.88 442.86 100.73C442.97 100.57 443.15 100.49 443.39 100.49L454.34 100.49C455.51 100.49 456.57 100.73 457.52 101.2C458.48 101.67 459.31 102.28 460 103.05C460.68 103.82 461.22 104.7 461.59 105.7C461.97 106.68 462.16 107.69 462.16 108.72C462.16 109.38 462.06 110.03 461.87 110.68C461.67 111.32 461.4 111.94 461.04 112.52C460.69 113.11 460.27 113.65 459.77 114.15C459.28 114.66 458.74 115.1 458.14 115.48L462.87 124.28C462.96 124.44 462.97 124.6 462.9 124.76C462.83 124.92 462.68 125 462.45 125L456.51 125C456.28 125 456.11 124.95 455.99 124.86C455.88 124.76 455.75 124.58 455.61 124.31L451.71 116.85L449.05 116.85L449.05 124.28C449.05 124.76 448.81 125 448.33 125L443.39 125C442.92 125 442.69 124.76 442.69 124.28ZM452.71 105.6L449.05 105.6L449.05 111.58L452.71 111.58C453.14 111.58 453.54 111.49 453.89 111.32C454.26 111.15 454.57 110.92 454.82 110.65C455.09 110.37 455.29 110.06 455.42 109.7C455.57 109.35 455.65 108.98 455.65 108.6C455.65 108.25 455.57 107.89 455.42 107.54C455.29 107.17 455.09 106.84 454.82 106.56C454.56 106.27 454.24 106.04 453.88 105.87C453.52 105.69 453.13 105.6 452.71 105.6ZM486.64 101.26L478.66 110.94L487.51 124.23C487.67 124.46 487.73 124.64 487.68 124.79C487.65 124.93 487.52 125 487.29 125L481.03 125C480.79 125 480.6 124.94 480.45 124.81C480.3 124.68 480.16 124.51 480.02 124.28L474.61 115.87L472.18 118.81L472.18 124.28C472.18 124.76 471.94 125 471.46 125L466.53 125C466.06 125 465.82 124.76 465.82 124.28L465.82 101.23C465.82 101 465.89 100.82 466.01 100.7C466.14 100.56 466.31 100.49 466.53 100.49L471.39 100.49C471.45 100.49 471.52 100.51 471.61 100.54C471.71 100.58 471.79 100.62 471.87 100.68C471.96 100.74 472.04 100.82 472.1 100.92C472.15 101.01 472.18 101.12 472.18 101.23L472.18 110.27L479.28 101.04C479.49 100.78 479.68 100.62 479.85 100.58C480.02 100.52 480.24 100.49 480.5 100.49L486.45 100.49C486.71 100.49 486.84 100.58 486.84 100.77C486.84 100.94 486.77 101.1 486.64 101.26ZM501 124.59C500.9 124.86 500.7 125 500.4 125L499.34 125C499.03 125 498.82 124.86 498.71 124.59L488.96 100.68C488.93 100.62 488.92 100.54 488.92 100.45C488.92 100.33 488.96 100.24 489.03 100.18C489.11 100.11 489.22 100.07 489.36 100.07L490.54 100.07C490.83 100.07 491.03 100.21 491.14 100.48L499.89 122.16L508.24 100.48C508.35 100.21 508.55 100.07 508.84 100.07L510 100.07C510.14 100.07 510.25 100.11 510.34 100.18C510.42 100.24 510.46 100.33 510.46 100.45C510.46 100.5 510.44 100.58 510.41 100.68L506.75 110.13L511.59 122.14L520.18 100.48C520.29 100.21 520.49 100.07 520.79 100.07L521.94 100.07C522.25 100.07 522.4 100.19 522.4 100.43C522.4 100.5 522.38 100.58 522.35 100.68L512.68 124.59C512.57 124.86 512.37 125 512.07 125L511.03 125C510.73 125 510.53 124.86 510.42 124.59L505.69 112.85L501 124.59ZM536.54 125.39C534.2 125.39 532.05 124.82 530.08 123.69C528.13 122.55 526.59 121 525.45 119.04C524.32 117.08 523.75 114.91 523.75 112.55C523.75 110.17 524.32 108 525.45 106.03C526.59 104.07 528.13 102.52 530.08 101.39C532.05 100.25 534.2 99.68 536.54 99.68C538.89 99.68 541.05 100.25 543 101.39C544.96 102.52 546.51 104.07 547.65 106.03C548.78 108 549.35 110.17 549.35 112.55C549.35 114.91 548.78 117.08 547.65 119.04C546.51 121 544.96 122.55 543 123.69C541.05 124.82 538.89 125.39 536.54 125.39ZM536.54 123.35C538.48 123.35 540.27 122.88 541.9 121.93C543.53 120.97 544.83 119.67 545.78 118.03C546.74 116.37 547.22 114.54 547.22 112.55C547.22 110.53 546.74 108.7 545.78 107.05C544.83 105.39 543.53 104.09 541.9 103.14C540.27 102.18 538.48 101.7 536.54 101.7C534.6 101.7 532.81 102.18 531.18 103.14C529.56 104.09 528.27 105.39 527.31 107.05C526.36 108.7 525.88 110.53 525.88 112.55C525.88 114.54 526.36 116.37 527.31 118.03C528.27 119.67 529.57 120.97 531.2 121.93C532.83 122.88 534.61 123.35 536.54 123.35ZM555.26 125C555.09 125 554.96 124.95 554.87 124.86C554.77 124.76 554.73 124.63 554.73 124.47L554.73 100.59C554.73 100.24 554.9 100.07 555.26 100.07L564.18 100.07C565.84 100.07 567.28 100.4 568.51 101.05C569.75 101.69 570.71 102.6 571.39 103.8C572.06 104.99 572.4 106.38 572.4 107.97C572.4 109.74 571.98 111.25 571.15 112.49C570.33 113.73 569.17 114.64 567.68 115.21L571.94 124.38C571.98 124.47 572.01 124.56 572.01 124.65C572.01 124.75 571.96 124.84 571.88 124.91C571.8 124.97 571.69 125 571.54 125L570.3 125C570.01 125 569.8 124.87 569.68 124.61L565.65 115.74C565.02 115.83 564.38 115.88 563.74 115.88L556.82 115.88L556.82 124.47C556.82 124.82 556.65 125 556.3 125L555.26 125ZM564 113.95C565.27 113.95 566.38 113.7 567.32 113.22C568.27 112.73 569 112.04 569.5 111.14C570.03 110.24 570.29 109.19 570.29 107.99C570.29 106.77 570.03 105.71 569.5 104.81C569 103.9 568.27 103.21 567.32 102.73C566.38 102.25 565.27 102.01 564 102.01L556.82 102.01L556.82 113.95L564 113.95ZM597.2 124.36C597.29 124.48 597.34 124.59 597.34 124.68C597.34 124.78 597.3 124.85 597.22 124.91C597.13 124.97 597.02 125 596.88 125L595.53 125C595.39 125 595.27 124.98 595.18 124.93C595.08 124.88 594.99 124.8 594.89 124.68L584.71 111.92L579.51 117.58L579.51 124.47C579.51 124.82 579.34 125 579 125L577.95 125C577.78 125 577.65 124.95 577.56 124.86C577.46 124.76 577.42 124.63 577.42 124.47L577.42 100.59C577.42 100.24 577.59 100.07 577.95 100.07L579 100.07C579.34 100.07 579.51 100.24 579.51 100.59L579.51 114.71L592.64 100.36C592.82 100.17 593.03 100.07 593.28 100.07L594.66 100.07C594.8 100.07 594.91 100.1 594.98 100.16C595.06 100.21 595.11 100.28 595.11 100.37C595.11 100.47 595.05 100.58 594.95 100.71L586.11 110.38L597.2 124.36ZM608.86 125.32C607.06 125.32 605.33 124.99 603.68 124.33C602.02 123.65 600.64 122.68 599.52 121.42C599.43 121.31 599.38 121.19 599.38 121.06C599.38 120.93 599.44 120.81 599.56 120.69L600.2 120.01C600.32 119.9 600.43 119.84 600.55 119.84C600.68 119.84 600.81 119.91 600.93 120.05C601.91 121.09 603.11 121.89 604.53 122.45C605.96 123 607.41 123.28 608.89 123.28C610.13 123.28 611.25 123.09 612.24 122.71C613.25 122.33 614.05 121.77 614.64 121.03C615.23 120.27 615.53 119.35 615.53 118.26C615.53 117.19 615.21 116.34 614.57 115.69C613.93 115.03 613.13 114.53 612.16 114.18C611.2 113.82 609.85 113.42 608.11 112.97C606.48 112.57 605.11 112.14 604.01 111.69C602.92 111.24 602.01 110.59 601.26 109.72C600.52 108.85 600.14 107.71 600.14 106.3C600.14 105 600.52 103.86 601.26 102.88C602.01 101.88 603.03 101.11 604.31 100.57C605.62 100.03 607.08 99.75 608.7 99.75C610.13 99.75 611.52 99.98 612.88 100.45C614.24 100.91 615.44 101.57 616.49 102.45C616.63 102.56 616.7 102.68 616.7 102.82C616.7 102.93 616.64 103.05 616.54 103.18L615.95 103.9C615.82 104.05 615.7 104.12 615.58 104.12C615.47 104.12 615.36 104.07 615.23 103.98C614.35 103.28 613.34 102.74 612.21 102.36C611.09 101.97 609.94 101.78 608.79 101.78C607.6 101.78 606.51 101.96 605.52 102.33C604.53 102.68 603.73 103.21 603.13 103.9C602.53 104.59 602.24 105.41 602.24 106.35C602.24 107.33 602.53 108.13 603.13 108.73C603.72 109.33 604.45 109.8 605.33 110.13C606.2 110.45 607.44 110.82 609.03 111.23C610.91 111.74 612.43 112.24 613.58 112.72C614.72 113.2 615.69 113.88 616.47 114.76C617.25 115.64 617.64 116.79 617.64 118.22C617.64 119.71 617.24 121 616.45 122.07C615.67 123.14 614.61 123.95 613.27 124.5C611.95 125.05 610.48 125.32 608.86 125.32Z" />
  <path fill="#000" d="M178.59 80.97L178.59 16.01C178.59 15.33 178.78 14.82 179.17 14.46C179.56 14.11 180.02 13.93 180.57 13.93L210.41 13.93C212.54 13.93 214.54 14.23 216.42 14.85C218.32 15.43 220.07 16.24 221.65 17.27C223.26 18.3 224.7 19.55 225.96 21C227.22 22.42 228.28 23.97 229.16 25.65C230.06 27.33 230.74 29.11 231.19 30.98C231.67 32.82 231.92 34.68 231.92 36.55C231.92 39.36 231.4 42.1 230.37 44.78C229.37 47.43 227.93 49.8 226.06 51.9C224.22 54 221.99 55.7 219.37 56.99C216.79 58.25 213.91 58.88 210.75 58.88L196.51 58.88L196.51 80.97C196.51 82.32 195.8 83 194.38 83L180.57 83C179.25 83 178.59 82.32 178.59 80.97ZM206.54 28.7L196.51 28.7L196.51 44.2L206.54 44.2C207.67 44.2 208.67 43.99 209.54 43.57C210.44 43.12 211.19 42.54 211.77 41.83C212.38 41.09 212.85 40.25 213.17 39.31C213.49 38.37 213.66 37.42 213.66 36.45C213.66 35.52 213.49 34.59 213.17 33.69C212.85 32.75 212.38 31.91 211.77 31.17C211.15 30.43 210.39 29.83 209.49 29.38C208.62 28.93 207.63 28.7 206.54 28.7ZM283.26 80.97L283.26 54.52L259.91 54.52L259.91 80.97C259.91 82.32 259.17 83 257.69 83L244.03 83C242.67 83 241.99 82.32 241.99 80.97L241.99 16.01C241.99 15.46 242.15 14.98 242.48 14.56C242.83 14.14 243.35 13.93 244.03 13.93L257.98 13.93C258.36 13.93 258.78 14.06 259.24 14.32C259.69 14.54 259.91 15.07 259.91 15.91L259.91 38.1L283.26 38.1L283.26 16.01C283.26 15.46 283.42 14.98 283.75 14.56C284.1 14.14 284.62 13.93 285.3 13.93L299.25 13.93C299.63 13.93 300.05 14.06 300.5 14.32C300.96 14.54 301.18 15.07 301.18 15.91L301.18 80.97C301.18 82.32 300.44 83 298.95 83L285.3 83C283.94 83 283.26 82.32 283.26 80.97ZM313.15 48.46C313.15 45.2 313.57 42.05 314.41 39.02C315.25 35.98 316.44 33.16 317.99 30.54C319.54 27.89 321.4 25.49 323.56 23.32C325.72 21.16 328.11 19.3 330.73 17.75C333.38 16.2 336.22 15.01 339.25 14.17C342.29 13.33 345.44 12.91 348.7 12.91C351.96 12.91 355.11 13.33 358.15 14.17C361.18 15.01 364.01 16.2 366.62 17.75C369.27 19.3 371.68 21.16 373.84 23.32C376 25.49 377.86 27.89 379.41 30.54C380.96 33.16 382.15 35.98 382.99 39.02C383.83 42.05 384.25 45.2 384.25 48.46C384.25 51.73 383.83 54.87 382.99 57.91C382.15 60.94 380.96 63.77 379.41 66.39C377.86 69 376 71.39 373.84 73.55C371.68 75.72 369.27 77.57 366.62 79.12C364.01 80.67 361.18 81.87 358.15 82.71C355.11 83.55 351.96 83.97 348.7 83.97C343.79 83.97 339.17 83.05 334.85 81.21C330.55 79.33 326.79 76.8 323.56 73.6C320.33 70.37 317.78 66.61 315.91 62.32C314.07 57.99 313.15 53.37 313.15 48.46ZM331.02 48.46C331.02 51.02 331.46 53.42 332.33 55.68C333.23 57.91 334.46 59.86 336.01 61.54C337.59 63.19 339.46 64.5 341.63 65.47C343.79 66.43 346.15 66.92 348.7 66.92C351.25 66.92 353.61 66.43 355.77 65.47C357.94 64.5 359.81 63.19 361.39 61.54C362.97 59.86 364.2 57.91 365.07 55.68C365.94 53.42 366.38 51.02 366.38 48.46C366.38 45.91 365.94 43.52 365.07 41.3C364.2 39.03 362.97 37.07 361.39 35.39C359.81 33.71 357.94 32.4 355.77 31.46C353.61 30.49 351.25 30.01 348.7 30.01C346.15 30.01 343.79 30.49 341.63 31.46C339.46 32.4 337.59 33.71 336.01 35.39C334.46 37.07 333.23 39.03 332.33 41.3C331.46 43.52 331.02 45.91 331.02 48.46ZM395.68 80.97L395.68 16.01C395.68 15.49 395.85 15.03 396.17 14.61C396.49 14.15 396.99 13.93 397.67 13.93L428.52 13.93C431.82 13.93 434.81 14.59 437.49 15.91C440.2 17.24 442.52 18.98 444.46 21.15C446.4 23.31 447.9 25.8 448.97 28.6C450.03 31.38 450.56 34.22 450.56 37.13C450.56 38.97 450.29 40.81 449.74 42.65C449.19 44.46 448.42 46.19 447.42 47.83C446.41 49.48 445.22 51.02 443.83 52.44C442.44 53.86 440.91 55.1 439.23 56.17L452.55 80.97C452.81 81.42 452.84 81.87 452.65 82.32C452.45 82.77 452.03 83 451.39 83L434.63 83C433.98 83 433.5 82.87 433.17 82.61C432.85 82.32 432.5 81.81 432.11 81.06L421.11 60.04L413.61 60.04L413.61 80.97C413.61 82.32 412.93 83 411.57 83L397.67 83C396.35 83 395.68 82.32 395.68 80.97ZM423.92 28.31L413.61 28.31L413.61 45.17L423.92 45.17C425.15 45.17 426.26 44.93 427.27 44.44C428.3 43.96 429.17 43.33 429.88 42.55C430.62 41.78 431.19 40.89 431.58 39.89C432 38.89 432.21 37.86 432.21 36.79C432.21 35.79 432 34.79 431.58 33.79C431.19 32.75 430.62 31.83 429.88 31.03C429.14 30.22 428.25 29.57 427.22 29.09C426.22 28.57 425.12 28.31 423.92 28.31ZM519.54 16.11L497.06 43.38L502.24 51.15L535 15.55C535.5 15.02 536.1 14.75 536.8 14.75L540.7 14.75C541.1 14.75 541.4 14.83 541.6 15C541.83 15.13 541.95 15.33 541.95 15.6C541.95 15.87 541.8 16.18 541.5 16.55L517.61 42.7L543.27 80.97C543.51 81.32 543.62 81.63 543.6 81.89C543.58 82.16 543.45 82.37 543.2 82.52C542.96 82.66 542.64 82.72 542.24 82.69L538.45 82.41C538.05 82.38 537.72 82.29 537.47 82.13C537.21 81.98 536.96 81.73 536.72 81.37L513.27 47.51L505.45 55.97L522.01 80.82C522.46 81.47 522.62 82 522.49 82.42C522.4 82.81 522.03 83 521.38 83L503.75 83C503.07 83 502.52 82.82 502.1 82.47C501.68 82.11 501.28 81.61 500.89 80.97L485.63 57.28L478.8 65.56L478.8 80.97C478.8 82.32 478.12 83 476.77 83L462.87 83C461.54 83 460.88 82.32 460.88 80.97L460.88 16.01C460.88 15.37 461.06 14.86 461.41 14.51C461.77 14.12 462.25 13.93 462.87 13.93L476.57 13.93C476.74 13.93 476.95 13.98 477.2 14.07C477.46 14.17 477.71 14.3 477.93 14.46C478.19 14.62 478.4 14.85 478.56 15.14C478.72 15.4 478.8 15.69 478.8 16.01L478.8 41.49L498.81 15.48C499.39 14.74 499.92 14.3 500.41 14.17C500.89 14.01 501.5 13.93 502.25 13.93L519.01 13.93C519.75 13.93 520.12 14.19 520.12 14.7C520.12 15.19 519.93 15.66 519.54 16.11ZM566.75 81.54C566.75 82.51 566.27 83 565.3 83L562.35 83C561.88 83 561.52 82.87 561.25 82.61C560.98 82.35 560.85 82 560.85 81.54L560.85 16.16C560.85 15.22 561.35 14.75 562.35 14.75L565.3 14.75C566.27 14.75 566.75 15.22 566.75 16.16L566.75 81.54ZM608.95 81.54C608.95 82 608.82 82.35 608.55 82.61C608.28 82.87 607.92 83 607.45 83L604.5 83C603.53 83 603.05 82.51 603.05 81.54L603.05 20.19L580.85 20.19C579.88 20.19 579.4 19.72 579.4 18.78L579.4 16.16C579.4 15.22 579.88 14.75 580.85 14.75L631.15 14.75C632.12 14.75 632.6 15.22 632.6 16.16L632.6 18.78C632.6 19.72 632.12 20.19 631.15 20.19L608.95 20.19L608.95 81.54Z" />
</svg>
