<svg version="1.2" xmlns="http://www.w3.org/2000/svg" viewBox="0 0 633 93">
  <title>Phork/it</title>
  <defs>
    <linearGradient id="phorkitGradientComplete" gradientUnits="userSpaceOnUse" x1="137.297" y1="0.001" x2="27.153" y2="92.422">
      <stop offset="0" stop-color="#ff3232" />
      <stop offset="1" stop-color="#f41150" />
    </linearGradient>
    <linearGradient id="phorkitGradientBottom3" gradientUnits="userSpaceOnUse" x1="31.927" y1="20.045" x2="104.304" y2="92.421">
      <stop offset="0" stop-color="#ff3232" />
      <stop offset="1" stop-color="#ff6020" />
    </linearGradient>
    <linearGradient id="phorkitGradientBottom2" gradientUnits="userSpaceOnUse" x1="32.79" y1="42.238" x2="82.976" y2="92.424">
      <stop offset="0" stop-color="#ff8e0d" />
      <stop offset="0.74" stop-color="#fca60a" />
    </linearGradient>
    <linearGradient id="phorkitGradientTop3" gradientUnits="userSpaceOnUse" x1="0.085" y1="35.988" x2="135.986" y2="35.988">
      <stop offset="0" stop-color="#ff8e0d" />
      <stop offset="1" stop-color="#ff6020" />
    </linearGradient>
    <linearGradient id="phorkitGradientTop2" gradientUnits="userSpaceOnUse" x1="83.658" y1="49.786" x2="32.103" y2="0.001">
      <stop offset="0" stop-color="#ffffff" />
      <stop offset="1" stop-color="#ffffff" stop-opacity="0" />
    </linearGradient>
  </defs>
  <style>
		.phorkitComplete { fill: url(#phorkitGradientComplete) }
		.phorkitBottom3 { fill: url(#phorkitGradientBottom3) }
		.phorkitBottom2 { fill: url(#phorkitGradientBottom2) }
		.phorkitTop3 { opacity: 0.4; fill: url(#phorkitGradientTop3) }
		.phorkitTop4 { opacity: 0.1; fill: url(#phorkitGradientTop2) }
  </style>
  <g>
    <path class="phorkitComplete" d="M4.57 76.05C-1.52 75.23 -1.64 66.89 4.89 67.25C4.99 67.26 83.53 72.19 83.53 72.19C89.61 72.52 89.36 64.88 82.95 64.55C82.69 64.53 4.94 59.41 4.94 59.41C-1.52 59.26 -1.48 50.69 4.76 50.53C4.86 50.53 76.54 49.76 83.45 49.75C89.52 49.76 89.69 42.53 83.45 42.36L5.27 41.59C-1.37 41.85 -1.46 33.47 5.19 32.73L83.86 27.49C89.44 27.33 89.61 19.93 83.69 20.1C83.69 20.1 20.55 23.13 5.19 24.84C-1.47 25.58 -1.37 17.1 5.24 15.92L87.33 1.24C104.06 -1.4 121.9 -0.49 133.99 10.57L158.66 35.31C166.37 42.75 165.97 49.62 159.88 55.72L133.98 81.65C121.89 92.35 104.01 94.23 87.33 90.98L4.57 76.05Z" />
    <path class="phorkitBottom3" d="M4.57 76.05C-1.52 75.23 -1.64 66.89 4.89 67.25C4.99 67.26 83.53 72.19 83.53 72.19C89.61 72.52 89.36 64.88 82.95 64.55C82.69 64.53 4.94 59.41 4.94 59.41C-1.52 59.26 -1.48 50.69 4.76 50.53C4.86 50.53 76.54 49.76 83.45 49.75C89.52 49.76 89.69 42.53 83.45 42.36L5.27 41.59C-1.37 41.85 -1.46 33.47 5.19 32.73L83.86 27.49C89.44 27.33 89.61 19.93 83.69 20.1C83.69 20.1 82.87 20.14 81.39 20.21C95.7 19.05 110.4 23.96 121.36 34.92C133.71 47.27 138.37 64.36 135.34 80.29L133.98 81.65C121.89 92.35 104.01 94.23 87.33 90.98L4.57 76.05Z" />
    <path class="phorkitBottom2" d="M4.57 76.05C-1.52 75.23 -1.64 66.89 4.89 67.25C4.99 67.26 83.53 72.19 83.53 72.19C89.61 72.52 89.36 64.88 82.95 64.55C82.69 64.53 4.94 59.41 4.94 59.41C-1.52 59.26 -1.48 50.69 4.76 50.53C4.86 50.53 76.54 49.76 83.45 49.75C89.52 49.76 89.69 42.53 83.45 42.36L79.81 42.33C89.17 41.63 98.77 44.87 105.95 52.05C116.69 62.79 118.62 78.97 111.73 91.65C103.85 92.93 95.44 92.56 87.33 90.98L4.57 76.05Z" />
    <path class="phorkitTop3" d="M135.08 11.67C138.13 27.62 133.48 44.74 121.11 57.1C111.26 66.96 98.38 71.92 85.48 71.98C89.46 70.75 88.57 64.84 82.95 64.55C82.69 64.53 4.94 59.41 4.94 59.41C-1.52 59.26 -1.48 50.69 4.76 50.53C4.86 50.53 76.54 49.76 83.45 49.75C89.52 49.76 89.69 42.53 83.45 42.36L5.27 41.59C-1.37 41.85 -1.46 33.47 5.19 32.73L83.86 27.49C89.44 27.33 89.61 19.93 83.69 20.1C83.69 20.1 20.55 23.13 5.19 24.84C-1.47 25.58 -1.37 17.1 5.24 15.92L87.33 1.24C104.06 -1.4 121.9 -0.49 133.99 10.57L135.08 11.67Z" />
    <path class="phorkitTop4" d="M111.63 0.65C118.34 13.3 116.37 29.31 105.71 39.97C99.72 45.95 92.06 49.2 84.25 49.71C89.53 49.1 89.4 42.52 83.45 42.36L5.27 41.59C-1.37 41.85 -1.46 33.47 5.19 32.73L83.86 27.49C89.44 27.33 89.61 19.93 83.69 20.1C83.69 20.1 20.55 23.13 5.19 24.84C-1.47 25.58 -1.37 17.1 5.24 15.92L87.33 1.24C95.43 -0.04 103.79 -0.48 111.63 0.65ZM80.99 49.77C82.08 49.76 82.91 49.76 83.41 49.76C82.6 49.79 81.8 49.79 80.99 49.77Z" />
  </g>
  <path fill="#000" d="M178.59 80.97L178.59 16.01C178.59 15.33 178.78 14.82 179.17 14.46C179.56 14.11 180.02 13.93 180.57 13.93L210.41 13.93C212.54 13.93 214.54 14.23 216.42 14.85C218.32 15.43 220.07 16.24 221.65 17.27C223.26 18.3 224.7 19.55 225.96 21C227.22 22.42 228.28 23.97 229.16 25.65C230.06 27.33 230.74 29.11 231.19 30.98C231.67 32.82 231.92 34.68 231.92 36.55C231.92 39.36 231.4 42.1 230.37 44.78C229.37 47.43 227.93 49.8 226.06 51.9C224.22 54 221.99 55.7 219.37 56.99C216.79 58.25 213.91 58.88 210.75 58.88L196.51 58.88L196.51 80.97C196.51 82.32 195.8 83 194.38 83L180.57 83C179.25 83 178.59 82.32 178.59 80.97ZM206.54 28.7L196.51 28.7L196.51 44.2L206.54 44.2C207.67 44.2 208.67 43.99 209.54 43.57C210.44 43.12 211.19 42.54 211.77 41.83C212.38 41.09 212.85 40.25 213.17 39.31C213.49 38.37 213.66 37.42 213.66 36.45C213.66 35.52 213.49 34.59 213.17 33.69C212.85 32.75 212.38 31.91 211.77 31.17C211.15 30.43 210.39 29.83 209.49 29.38C208.62 28.93 207.63 28.7 206.54 28.7ZM283.26 80.97L283.26 54.52L259.91 54.52L259.91 80.97C259.91 82.32 259.17 83 257.69 83L244.03 83C242.67 83 241.99 82.32 241.99 80.97L241.99 16.01C241.99 15.46 242.15 14.98 242.48 14.56C242.83 14.14 243.35 13.93 244.03 13.93L257.98 13.93C258.36 13.93 258.78 14.06 259.24 14.32C259.69 14.54 259.91 15.07 259.91 15.91L259.91 38.1L283.26 38.1L283.26 16.01C283.26 15.46 283.42 14.98 283.75 14.56C284.1 14.14 284.62 13.93 285.3 13.93L299.25 13.93C299.63 13.93 300.05 14.06 300.5 14.32C300.96 14.54 301.18 15.07 301.18 15.91L301.18 80.97C301.18 82.32 300.44 83 298.95 83L285.3 83C283.94 83 283.26 82.32 283.26 80.97ZM313.15 48.46C313.15 45.2 313.57 42.05 314.41 39.02C315.25 35.98 316.44 33.16 317.99 30.54C319.54 27.89 321.4 25.49 323.56 23.32C325.72 21.16 328.11 19.3 330.73 17.75C333.38 16.2 336.22 15.01 339.25 14.17C342.29 13.33 345.44 12.91 348.7 12.91C351.96 12.91 355.11 13.33 358.15 14.17C361.18 15.01 364.01 16.2 366.62 17.75C369.27 19.3 371.68 21.16 373.84 23.32C376 25.49 377.86 27.89 379.41 30.54C380.96 33.16 382.15 35.98 382.99 39.02C383.83 42.05 384.25 45.2 384.25 48.46C384.25 51.73 383.83 54.87 382.99 57.91C382.15 60.94 380.96 63.77 379.41 66.39C377.86 69 376 71.39 373.84 73.55C371.68 75.72 369.27 77.57 366.62 79.12C364.01 80.67 361.18 81.87 358.15 82.71C355.11 83.55 351.96 83.97 348.7 83.97C343.79 83.97 339.17 83.05 334.85 81.21C330.55 79.33 326.79 76.8 323.56 73.6C320.33 70.37 317.78 66.61 315.91 62.32C314.07 57.99 313.15 53.37 313.15 48.46ZM331.02 48.46C331.02 51.02 331.46 53.42 332.33 55.68C333.23 57.91 334.46 59.86 336.01 61.54C337.59 63.19 339.46 64.5 341.63 65.47C343.79 66.43 346.15 66.92 348.7 66.92C351.25 66.92 353.61 66.43 355.77 65.47C357.94 64.5 359.81 63.19 361.39 61.54C362.97 59.86 364.2 57.91 365.07 55.68C365.94 53.42 366.38 51.02 366.38 48.46C366.38 45.91 365.94 43.52 365.07 41.3C364.2 39.03 362.97 37.07 361.39 35.39C359.81 33.71 357.94 32.4 355.77 31.46C353.61 30.49 351.25 30.01 348.7 30.01C346.15 30.01 343.79 30.49 341.63 31.46C339.46 32.4 337.59 33.71 336.01 35.39C334.46 37.07 333.23 39.03 332.33 41.3C331.46 43.52 331.02 45.91 331.02 48.46ZM395.68 80.97L395.68 16.01C395.68 15.49 395.85 15.03 396.17 14.61C396.49 14.15 396.99 13.93 397.67 13.93L428.52 13.93C431.82 13.93 434.81 14.59 437.49 15.91C440.2 17.24 442.52 18.98 444.46 21.15C446.4 23.31 447.9 25.8 448.97 28.6C450.03 31.38 450.56 34.22 450.56 37.13C450.56 38.97 450.29 40.81 449.74 42.65C449.19 44.46 448.42 46.19 447.42 47.83C446.41 49.48 445.22 51.02 443.83 52.44C442.44 53.86 440.91 55.1 439.23 56.17L452.55 80.97C452.81 81.42 452.84 81.87 452.65 82.32C452.45 82.77 452.03 83 451.39 83L434.63 83C433.98 83 433.5 82.87 433.17 82.61C432.85 82.32 432.5 81.81 432.11 81.06L421.11 60.04L413.61 60.04L413.61 80.97C413.61 82.32 412.93 83 411.57 83L397.67 83C396.35 83 395.68 82.32 395.68 80.97ZM423.92 28.31L413.61 28.31L413.61 45.17L423.92 45.17C425.15 45.17 426.26 44.93 427.27 44.44C428.3 43.96 429.17 43.33 429.88 42.55C430.62 41.78 431.19 40.89 431.58 39.89C432 38.89 432.21 37.86 432.21 36.79C432.21 35.79 432 34.79 431.58 33.79C431.19 32.75 430.62 31.83 429.88 31.03C429.14 30.22 428.25 29.57 427.22 29.09C426.22 28.57 425.12 28.31 423.92 28.31ZM519.54 16.11L497.06 43.38L502.24 51.15L535 15.55C535.5 15.02 536.1 14.75 536.8 14.75L540.7 14.75C541.1 14.75 541.4 14.83 541.6 15C541.83 15.13 541.95 15.33 541.95 15.6C541.95 15.87 541.8 16.18 541.5 16.55L517.61 42.7L543.27 80.97C543.51 81.32 543.62 81.63 543.6 81.89C543.58 82.16 543.45 82.37 543.2 82.52C542.96 82.66 542.64 82.72 542.24 82.69L538.45 82.41C538.05 82.38 537.72 82.29 537.47 82.13C537.21 81.98 536.96 81.73 536.72 81.37L513.27 47.51L505.45 55.97L522.01 80.82C522.46 81.47 522.62 82 522.49 82.42C522.4 82.81 522.03 83 521.38 83L503.75 83C503.07 83 502.52 82.82 502.1 82.47C501.68 82.11 501.28 81.61 500.89 80.97L485.63 57.28L478.8 65.56L478.8 80.97C478.8 82.32 478.12 83 476.77 83L462.87 83C461.54 83 460.88 82.32 460.88 80.97L460.88 16.01C460.88 15.37 461.06 14.86 461.41 14.51C461.77 14.12 462.25 13.93 462.87 13.93L476.57 13.93C476.74 13.93 476.95 13.98 477.2 14.07C477.46 14.17 477.71 14.3 477.93 14.46C478.19 14.62 478.4 14.85 478.56 15.14C478.72 15.4 478.8 15.69 478.8 16.01L478.8 41.49L498.81 15.48C499.39 14.74 499.92 14.3 500.41 14.17C500.89 14.01 501.5 13.93 502.25 13.93L519.01 13.93C519.75 13.93 520.12 14.19 520.12 14.7C520.12 15.19 519.93 15.66 519.54 16.11ZM566.75 81.54C566.75 82.51 566.27 83 565.3 83L562.35 83C561.88 83 561.52 82.87 561.25 82.61C560.98 82.35 560.85 82 560.85 81.54L560.85 16.16C560.85 15.22 561.35 14.75 562.35 14.75L565.3 14.75C566.27 14.75 566.75 15.22 566.75 16.16L566.75 81.54ZM608.95 81.54C608.95 82 608.82 82.35 608.55 82.61C608.28 82.87 607.92 83 607.45 83L604.5 83C603.53 83 603.05 82.51 603.05 81.54L603.05 20.19L580.85 20.19C579.88 20.19 579.4 19.72 579.4 18.78L579.4 16.16C579.4 15.22 579.88 14.75 580.85 14.75L631.15 14.75C632.12 14.75 632.6 15.22 632.6 16.16L632.6 18.78C632.6 19.72 632.12 20.19 631.15 20.19L608.95 20.19L608.95 81.54Z" />
</svg>
