<svg xmlns="http://www.w3.org/2000/svg" viewBox="0 0 32 32">
  <title>Down arrow</title>
  <path fill="currentColor" d="M31.67 8.59L30.07 6.99C29.86 6.77 29.61 6.67 29.33 6.67C29.05 6.67 28.81 6.77 28.6 6.99L16 19.59L3.4 6.99C3.18 6.77 2.94 6.67 2.66 6.67C2.38 6.67 2.14 6.77 1.92 6.99L0.32 8.59C0.11 8.8 0 9.05 0 9.33C0 9.61 0.11 9.85 0.32 10.07L15.26 25C15.47 25.22 15.72 25.32 16 25.32C16.27 25.32 16.52 25.22 16.73 25L31.67 10.07C31.89 9.85 31.99 9.61 31.99 9.33C31.99 9.05 31.89 8.8 31.67 8.59Z" />
</svg>