<svg xmlns="http://www.w3.org/2000/svg" viewBox="0 0 32 32">
  <title>Up arrow</title>
  <path fill="currentColor" d="M31.67 21.93L16.73 6.99C16.52 6.77 16.27 6.67 16 6.67C15.72 6.67 15.47 6.77 15.26 6.99L0.32 21.93C0.11 22.14 0 22.39 0 22.66C0 22.94 0.11 23.19 0.32 23.4L1.92 25C2.14 25.22 2.38 25.32 2.66 25.32C2.94 25.32 3.18 25.22 3.4 25L16 12.41L28.59 25C28.81 25.22 29.05 25.32 29.33 25.32C29.61 25.32 29.86 25.22 30.07 25L31.67 23.4C31.89 23.19 31.99 22.94 31.99 22.66C31.99 22.39 31.89 22.14 31.67 21.93Z" />
</svg>