<svg xmlns="http://www.w3.org/2000/svg" viewBox="0 0 32 32">
  <title>Double left arrow</title>
  <path fill="currentColor" d="M18.56 16L31.16 3.4C31.37 3.18 31.48 2.94 31.48 2.66C31.48 2.38 31.37 2.14 31.16 1.92L29.56 0.32C29.34 0.11 29.1 0 28.82 0C28.54 0 28.3 0.11 28.08 0.32L13.14 15.26C12.93 15.47 12.82 15.72 12.82 16C12.82 16.27 12.93 16.52 13.14 16.73L28.08 31.67C28.3 31.89 28.54 31.99 28.82 31.99C29.1 31.99 29.34 31.89 29.56 31.67L31.16 30.07C31.37 29.86 31.48 29.61 31.48 29.33C31.48 29.05 31.37 28.81 31.16 28.6L18.56 16Z" />
	<path fill="currentColor" d="M6.25 16L18.85 3.4C19.06 3.18 19.17 2.94 19.17 2.66C19.17 2.38 19.06 2.14 18.85 1.92L17.25 0.32C17.03 0.11 16.79 0 16.51 0C16.23 0 15.99 0.11 15.77 0.32L0.83 15.26C0.62 15.47 0.51 15.72 0.51 16C0.51 16.27 0.62 16.52 0.83 16.73L15.77 31.67C15.99 31.89 16.23 31.99 16.51 31.99C16.79 31.99 17.03 31.89 17.25 31.67L18.85 30.07C19.06 29.86 19.17 29.61 19.17 29.33C19.17 29.05 19.06 28.81 18.85 28.6L6.25 16Z" />
</svg>