<svg xmlns="http://www.w3.org/2000/svg" viewBox="0 0 32 32">
  <title>Up and down arrow</title>
  <path fill="currentColor" d="M23.84 11.96L16.37 4.5C16.26 4.38 16.13 4.34 16 4.34C15.86 4.34 15.73 4.38 15.63 4.5L8.16 11.96C8.05 12.07 8 12.2 8 12.33C8 12.47 8.05 12.59 8.16 12.7L8.96 13.5C9.07 13.61 9.19 13.66 9.33 13.66C9.47 13.66 9.59 13.61 9.7 13.5L16 7.21L22.3 13.5C22.41 13.61 22.52 13.66 22.66 13.66C22.8 13.66 22.93 13.61 23.04 13.5L23.84 12.7C23.95 12.59 23.99 12.47 23.99 12.33C23.99 12.2 23.95 12.07 23.84 11.96Z" />
  <path fill="currentColor" d="M8.16 20.03L15.63 27.5C15.74 27.61 15.86 27.66 16 27.66C16.14 27.66 16.26 27.61 16.37 27.5L23.84 20.03C23.94 19.92 24 19.8 24 19.66C24 19.52 23.94 19.4 23.84 19.29L23.04 18.49C22.93 18.38 22.81 18.33 22.67 18.33C22.53 18.33 22.41 18.38 22.3 18.49L16 24.79L9.7 18.49C9.59 18.38 9.47 18.33 9.33 18.33C9.19 18.33 9.07 18.38 8.96 18.49L8.16 19.29C8.05 19.4 8 19.52 8 19.66C8 19.8 8.05 19.92 8.16 20.03Z" />
</svg>