<svg xmlns="http://www.w3.org/2000/svg" viewBox="0 0 32 32">
  <title>Double right arrow</title>
  <path fill="currentColor" d="M31.16 15.26L16.22 0.32C16.01 0.11 15.76 0 15.48 0C15.21 0 14.96 0.11 14.75 0.32L13.14 1.92C12.93 2.14 12.82 2.38 12.82 2.66C12.82 2.94 12.93 3.18 13.14 3.4L25.74 16L13.14 28.6C12.93 28.81 12.82 29.05 12.82 29.33C12.82 29.61 12.93 29.86 13.14 30.07L14.75 31.67C14.96 31.89 15.21 31.99 15.48 31.99C15.76 31.99 16.01 31.89 16.22 31.67L31.16 16.73C31.37 16.52 31.48 16.27 31.48 16C31.48 15.72 31.37 15.47 31.16 15.26Z" />
  <path fill="currentColor" d="M19.17 16C19.17 15.72 19.06 15.47 18.85 15.26L3.91 0.32C3.7 0.11 3.45 0 3.17 0C2.9 0 2.65 0.11 2.44 0.32L0.83 1.92C0.62 2.14 0.51 2.38 0.51 2.66C0.51 2.94 0.62 3.18 0.83 3.4L13.43 16L0.83 28.6C0.62 28.81 0.51 29.05 0.51 29.33C0.51 29.61 0.62 29.86 0.83 30.07L2.44 31.67C2.65 31.89 2.9 31.99 3.17 31.99C3.45 31.99 3.7 31.89 3.91 31.67L18.85 16.73C19.06 16.52 19.17 16.27 19.17 16Z" />
</svg>
