<svg xmlns="http://www.w3.org/2000/svg" viewBox="0 0 32 32">
  <title>Right arrow</title>
  <path fill="currentColor" d="M25.01 15.26L10.07 0.32C9.85 0.11 9.61 0 9.33 0C9.05 0 8.81 0.11 8.59 0.32L6.99 1.92C6.77 2.14 6.67 2.38 6.67 2.66C6.67 2.94 6.77 3.18 6.99 3.4L19.59 16L6.99 28.6C6.77 28.81 6.67 29.05 6.67 29.33C6.67 29.61 6.77 29.86 6.99 30.07L8.59 31.67C8.81 31.89 9.05 31.99 9.33 31.99C9.61 31.99 9.85 31.89 10.07 31.67L25 16.73C25.22 16.52 25.32 16.27 25.32 16C25.32 15.72 25.22 15.47 25.01 15.26Z" />
</svg>