<svg xmlns="http://www.w3.org/2000/svg" viewBox="0 0 32 32">
	<title>Hidden</title>
  <style>
	  .icon {
		  pointer-events: bounding-box;
		}

	  .icon:not(:hover) .muted {
			fill-opacity: .5;
		}
	</style>
	<g class="icon">
		<path fill="currentColor" class="muted" d="M31.74 15.24C32.07 15.69 32.07 16.31 31.74 16.75C27.65 22.19 22.11 25.53 16 25.53C13.74 25.53 11.56 25.07 9.51 24.23L12.16 21.53C13.36 22.36 14.84 22.81 16.43 22.71C19.78 22.49 22.49 19.78 22.71 16.43C22.81 14.8 22.33 13.29 21.46 12.08L24.66 8.83C27.31 10.35 29.7 12.54 31.74 15.24ZM0.25 16.75C-0.08 16.3 -0.08 15.68 0.25 15.24C4.34 9.8 9.88 6.46 16 6.46C18.05 6.46 20.05 6.84 21.94 7.55L19.36 10.17C18.26 9.53 16.95 9.19 15.56 9.28C12.21 9.49 9.49 12.21 9.28 15.56C9.19 16.99 9.55 18.33 10.22 19.45L6.85 22.88C4.4 21.38 2.16 19.29 0.25 16.75ZM16.23 19.61C15.57 19.65 14.95 19.52 14.41 19.25L19.23 14.35C19.52 14.9 19.66 15.55 19.61 16.22C19.5 18.04 18.03 19.5 16.23 19.61ZM12.38 15.76C12.49 13.95 13.96 12.49 15.77 12.38C16.21 12.35 16.65 12.4 17.05 12.52L12.54 17.1C12.41 16.68 12.35 16.23 12.38 15.76Z" />
		<path fill="currentColor" d="M28.01 3.11L28.94 4.03L4.36 29L3.74 28.38L3.73 28.39L2.8 27.47L27.38 2.5L28 3.12L28.01 3.11Z" />
	</g>
</svg>