<svg xmlns="http://www.w3.org/2000/svg" viewBox="0 0 32 32">
	<title>Visible</title>
  <path fill="currentColor" d="M31.74 15.24C32.07 15.69 32.07 16.31 31.74 16.75C27.65 22.19 22.11 25.53 16 25.53C9.88 25.53 4.34 22.19 0.25 16.75C-0.08 16.3 -0.08 15.68 0.25 15.24C4.34 9.8 9.88 6.46 16 6.46C22.11 6.46 27.65 9.8 31.74 15.24ZM22.71 16.43C22.96 12.37 19.61 9.03 15.56 9.28C12.21 9.49 9.49 12.21 9.28 15.56C9.03 19.62 12.38 22.96 16.43 22.71C19.78 22.49 22.49 19.78 22.71 16.43ZM16.23 19.61C14.04 19.74 12.24 17.95 12.38 15.76C12.49 13.95 13.96 12.49 15.77 12.38C17.95 12.24 19.76 14.04 19.61 16.22C19.5 18.04 18.03 19.5 16.23 19.61Z" />
</svg>
