<svg xmlns="http://www.w3.org/2000/svg" viewBox="0 0 32 32">
  <title>Read only</title>
  <g>
    <path fill="currentColor" d="M19.92 5.38L26.43 11.89L21.71 16.61L15.23 10.07L19.92 5.38ZM9.95 28.37L3.45 21.86L10.6 14.7L17.08 21.24L9.95 28.37ZM31.34 6.96L28.1 10.21L21.59 3.7L24.37 0.92C25.5 -0.2 27.32 -0.2 28.44 0.92L31.34 3.82C32.21 4.69 32.21 6.09 31.34 6.96ZM1.66 23.63L8.17 30.14L0.91 31.89C0.38 32.02 -0.1 31.55 0.02 31.01L1.66 23.63Z" />
    <path fill="currentColor" d="M1.43 3.52L4.01 0.97L30.14 27.34L27.57 29.9L1.43 3.52Z" />
  </g>
</svg>