<svg version="1.2" xmlns="http://www.w3.org/2000/svg" viewBox="0 0 400 400">
  <title>Phork</title>
  <path fill="currentColor" d="M270.27 295.39C245.47 332.21 208.94 361.77 166.83 364.34L71.09 364.3C48.58 364.27 35.15 352.31 35.64 324.31L35.53 233.04C37.43 190.27 68.68 155.64 104.48 129.6L283.26 5.06C297.65 -4.96 313.49 10.53 299.83 21.45C268.29 46.69 146.03 157.72 146.03 157.72C134.8 168.34 148.76 181.7 159.39 171.69L314.4 36.03C328.07 25.1 343.37 40.76 330.62 52.54L187.63 198.4C176.4 210.24 190.06 223.3 201.29 212.06C214.05 199.3 347.91 68.3 348.08 68.14C359.92 56.89 375.82 72.64 364.16 84.84C364.16 84.84 229.98 237.97 229.52 238.47C218.29 250.92 231.95 265.5 242.57 253.66C242.57 253.66 378.56 99.45 378.73 99.26C390.12 86.51 405.3 102.15 395.58 114.92L270.27 295.39Z" />
</svg>
