<svg version="1.2" xmlns="http://www.w3.org/2000/svg" viewBox="0 0 400 400">
  <title>phork</title>
  <path fill="currentColor" d="M258.74 323.19C231.51 363.62 191.4 396.08 145.17 398.9L40.05 398.85C15.33 398.82 0.59 385.69 1.12 354.95L1 254.73C3.09 207.77 37.4 169.75 76.71 141.16L273 4.42C288.8 -6.58 306.2 10.42 291.2 22.42C256.57 50.13 122.33 172.04 122.33 172.04C110 183.7 125.33 198.37 137 187.37L307.2 38.42C322.2 26.42 339 43.62 325 56.55L168 216.7C155.67 229.7 170.67 244.04 183 231.7C197.01 217.69 343.99 73.86 344.17 73.68C357.17 61.33 374.63 78.62 361.83 92.02C361.83 92.02 214.5 260.15 214 260.7C201.67 274.37 216.67 290.37 228.33 277.37C228.33 277.37 377.64 108.06 377.83 107.85C390.33 93.85 407 111.02 396.33 125.04L258.74 323.19Z" />
</svg>
