<svg version="1.2" xmlns="http://www.w3.org/2000/svg" viewBox="0 0 455 71">
  <title>Phork/it</title>
  <path fill="currentColor" d="M0.59 67.97L0.59 3.01C0.59 2.33 0.78 1.82 1.17 1.46C1.56 1.11 2.02 0.93 2.57 0.93L32.41 0.93C34.54 0.93 36.54 1.23 38.42 1.85C40.32 2.43 42.07 3.24 43.65 4.27C45.26 5.3 46.7 6.55 47.96 8C49.22 9.42 50.28 10.97 51.16 12.65C52.06 14.33 52.74 16.11 53.19 17.98C53.68 19.82 53.92 21.68 53.92 23.55C53.92 26.36 53.4 29.1 52.37 31.78C51.37 34.43 49.93 36.8 48.06 38.9C46.22 41 43.99 42.7 41.37 43.99C38.79 45.25 35.91 45.88 32.75 45.88L18.51 45.88L18.51 67.97C18.51 69.32 17.8 70 16.38 70L2.57 70C1.25 70 0.59 69.32 0.59 67.97ZM28.54 15.7L18.51 15.7L18.51 31.2L28.54 31.2C29.67 31.2 30.67 30.99 31.54 30.57C32.44 30.12 33.19 29.54 33.77 28.83C34.38 28.09 34.85 27.25 35.17 26.31C35.49 25.37 35.66 24.42 35.66 23.45C35.66 22.52 35.49 21.59 35.17 20.69C34.85 19.75 34.38 18.91 33.77 18.17C33.15 17.43 32.39 16.83 31.49 16.38C30.62 15.93 29.63 15.7 28.54 15.7ZM105.26 67.97L105.26 41.52L81.91 41.52L81.91 67.97C81.91 69.32 81.17 70 79.69 70L66.03 70C64.67 70 63.99 69.32 63.99 67.97L63.99 3.01C63.99 2.46 64.15 1.98 64.48 1.56C64.83 1.14 65.35 0.93 66.03 0.93L79.98 0.93C80.36 0.93 80.78 1.06 81.24 1.32C81.69 1.54 81.91 2.07 81.91 2.91L81.91 25.1L105.26 25.1L105.26 3.01C105.26 2.46 105.42 1.98 105.75 1.56C106.1 1.14 106.62 0.93 107.3 0.93L121.25 0.93C121.63 0.93 122.05 1.06 122.5 1.32C122.96 1.54 123.18 2.07 123.18 2.91L123.18 67.97C123.18 69.32 122.44 70 120.95 70L107.3 70C105.94 70 105.26 69.32 105.26 67.97ZM135.15 35.46C135.15 32.2 135.57 29.05 136.41 26.02C137.25 22.98 138.44 20.16 139.99 17.54C141.54 14.89 143.4 12.49 145.56 10.33C147.72 8.16 150.11 6.3 152.73 4.75C155.38 3.2 158.22 2.01 161.25 1.17C164.29 0.33 167.44 -0.09 170.7 -0.09C173.96 -0.09 177.11 0.33 180.15 1.17C183.18 2.01 186.01 3.2 188.62 4.75C191.27 6.3 193.68 8.16 195.84 10.33C198 12.49 199.86 14.89 201.41 17.54C202.96 20.16 204.15 22.98 204.99 26.02C205.83 29.05 206.25 32.2 206.25 35.46C206.25 38.73 205.83 41.87 204.99 44.91C204.15 47.94 202.96 50.77 201.41 53.39C199.86 56 198 58.39 195.84 60.55C193.68 62.72 191.27 64.57 188.62 66.13C186.01 67.68 183.18 68.87 180.15 69.71C177.11 70.55 173.96 70.97 170.7 70.97C165.79 70.97 161.17 70.05 156.85 68.21C152.55 66.33 148.79 63.8 145.56 60.6C142.33 57.37 139.78 53.61 137.91 49.32C136.07 44.99 135.15 40.37 135.15 35.46ZM153.02 35.46C153.02 38.02 153.46 40.42 154.33 42.68C155.23 44.91 156.46 46.86 158.01 48.54C159.59 50.19 161.46 51.5 163.63 52.47C165.79 53.43 168.15 53.92 170.7 53.92C173.25 53.92 175.61 53.43 177.77 52.47C179.94 51.5 181.81 50.19 183.39 48.54C184.97 46.86 186.2 44.91 187.07 42.68C187.94 40.42 188.38 38.02 188.38 35.46C188.38 32.91 187.94 30.52 187.07 28.3C186.2 26.03 184.97 24.07 183.39 22.39C181.81 20.71 179.94 19.4 177.77 18.46C175.61 17.49 173.25 17.01 170.7 17.01C168.15 17.01 165.79 17.49 163.63 18.46C161.46 19.4 159.59 20.71 158.01 22.39C156.46 24.07 155.23 26.03 154.33 28.3C153.46 30.52 153.02 32.91 153.02 35.46ZM217.68 67.97L217.68 3.01C217.68 2.49 217.85 2.03 218.17 1.61C218.49 1.15 218.99 0.93 219.67 0.93L250.53 0.93C253.82 0.93 256.81 1.59 259.49 2.91C262.2 4.24 264.52 5.98 266.46 8.15C268.4 10.31 269.9 12.8 270.97 15.6C272.03 18.38 272.56 21.22 272.56 24.13C272.56 25.97 272.29 27.81 271.74 29.65C271.19 31.46 270.42 33.19 269.42 34.83C268.41 36.48 267.22 38.02 265.83 39.44C264.44 40.86 262.91 42.1 261.23 43.17L274.55 67.97C274.81 68.42 274.84 68.87 274.65 69.32C274.45 69.77 274.03 70 273.39 70L256.63 70C255.98 70 255.5 69.87 255.17 69.61C254.85 69.32 254.5 68.81 254.11 68.06L243.11 47.04L235.61 47.04L235.61 67.97C235.61 69.32 234.93 70 233.57 70L219.67 70C218.35 70 217.68 69.32 217.68 67.97ZM245.92 15.31L235.61 15.31L235.61 32.17L245.92 32.17C247.15 32.17 248.26 31.93 249.27 31.44C250.3 30.96 251.17 30.33 251.88 29.55C252.62 28.78 253.19 27.89 253.58 26.89C254 25.89 254.21 24.86 254.21 23.79C254.21 22.79 254 21.79 253.58 20.79C253.19 19.75 252.62 18.83 251.88 18.03C251.14 17.22 250.25 16.57 249.22 16.09C248.22 15.57 247.12 15.31 245.92 15.31ZM341.54 3.11L319.06 30.38L324.24 38.15L357 2.55C357.5 2.02 358.1 1.75 358.8 1.75L362.7 1.75C363.1 1.75 363.4 1.83 363.6 2C363.83 2.13 363.95 2.33 363.95 2.6C363.95 2.87 363.8 3.18 363.5 3.55L339.61 29.7L365.27 67.97C365.51 68.32 365.62 68.63 365.6 68.89C365.58 69.16 365.45 69.37 365.2 69.52C364.96 69.66 364.64 69.72 364.24 69.69L360.45 69.41C360.05 69.38 359.72 69.29 359.47 69.13C359.21 68.98 358.96 68.73 358.72 68.37L335.27 34.51L327.45 42.97L344.01 67.82C344.46 68.47 344.62 69 344.49 69.42C344.4 69.81 344.03 70 343.38 70L325.75 70C325.07 70 324.52 69.82 324.1 69.47C323.68 69.11 323.28 68.61 322.89 67.97L307.63 44.28L300.8 52.56L300.8 67.97C300.8 69.32 300.13 70 298.77 70L284.87 70C283.54 70 282.88 69.32 282.88 67.97L282.88 3.01C282.88 2.37 283.06 1.86 283.41 1.51C283.77 1.12 284.25 0.93 284.87 0.93L298.58 0.93C298.74 0.93 298.95 0.98 299.2 1.07C299.46 1.17 299.71 1.3 299.93 1.46C300.19 1.62 300.4 1.85 300.56 2.14C300.72 2.4 300.8 2.69 300.8 3.01L300.8 28.49L320.81 2.48C321.39 1.74 321.92 1.3 322.41 1.17C322.89 1.01 323.5 0.93 324.25 0.93L341.01 0.93C341.75 0.93 342.12 1.19 342.12 1.7C342.12 2.19 341.93 2.66 341.54 3.11ZM388.75 68.54C388.75 69.51 388.27 70 387.3 70L384.35 70C383.88 70 383.52 69.87 383.25 69.61C382.98 69.35 382.85 69 382.85 68.54L382.85 3.16C382.85 2.22 383.35 1.75 384.35 1.75L387.3 1.75C388.27 1.75 388.75 2.22 388.75 3.16L388.75 68.54ZM430.95 68.54C430.95 69 430.82 69.35 430.55 69.61C430.28 69.87 429.92 70 429.45 70L426.5 70C425.53 70 425.05 69.51 425.05 68.54L425.05 7.19L402.85 7.19C401.88 7.19 401.4 6.72 401.4 5.78L401.4 3.16C401.4 2.22 401.88 1.75 402.85 1.75L453.15 1.75C454.12 1.75 454.6 2.22 454.6 3.16L454.6 5.78C454.6 6.72 454.12 7.19 453.15 7.19L430.95 7.19L430.95 68.54Z" />
</svg>
