<svg xmlns="http://www.w3.org/2000/svg" viewBox="0 0 32 32">
  <title>Pin</title>
	<path fill="currentColor" d="M21.58 13.39L20.93 6L23.16 6C23.86 6 24.42 5.33 24.42 4.5L24.42 1.5C24.42 0.67 23.86 0 23.16 0L8.84 0C8.14 0 7.58 0.67 7.58 1.5L7.58 4.5C7.58 5.33 8.14 6 8.84 6L11.07 6L10.42 13.39C7.87 14.8 5.89 17.33 5.89 20.5C5.89 21.33 6.46 22 7.16 22L14.32 22L14.32 28.5C14.32 28.58 14.33 28.65 14.36 28.72L15.62 31.72C15.78 32.09 16.22 32.09 16.38 31.72L17.64 28.72C17.65 28.71 17.65 28.69 17.66 28.67C17.67 28.65 17.67 28.63 17.68 28.62C17.68 28.6 17.68 28.58 17.68 28.56C17.68 28.54 17.68 28.52 17.68 28.5L17.68 22L24.84 22C25.54 22 26.11 21.33 26.11 20.5C26.11 17.3 24.11 14.79 21.58 13.39L21.58 13.39Z" />
</svg>