<svg xmlns="http://www.w3.org/2000/svg" viewBox="0 0 32 32">
  <title>Search</title>
  <path fill="currentColor" d="M30.91 31.51C30.6 31.81 30.18 31.98 29.75 31.98C29.28 31.98 28.85 31.8 28.53 31.46L20.86 23.49C18.68 25.02 16.14 25.82 13.46 25.82C6.34 25.82 0.55 20.03 0.55 12.91C0.55 5.79 6.34 0 13.46 0C20.58 0 26.38 5.79 26.38 12.91C26.38 15.96 25.3 18.89 23.35 21.21L30.96 29.13C31.6 29.8 31.58 30.87 30.91 31.51ZM3.92 12.91C3.92 18.17 8.2 22.46 13.46 22.46C18.73 22.46 23.01 18.17 23.01 12.91C23.01 7.65 18.73 3.37 13.46 3.37C8.2 3.37 3.92 7.65 3.92 12.91Z" />
</svg>