<?xml version="1.0" standalone="no"?>
<!DOCTYPE svg PUBLIC "-//W3C//DTD SVG 20010904//EN"
 "http://www.w3.org/TR/2001/REC-SVG-20010904/DTD/svg10.dtd">
<svg version="1.0" xmlns="http://www.w3.org/2000/svg"
 width="700.000000pt" height="700.000000pt" viewBox="0 0 700.000000 700.000000"
 preserveAspectRatio="xMidYMid meet">
<metadata>
Created by potrace 1.11, written by Peter Selinger 2001-2013
</metadata>
<g transform="translate(0.000000,700.000000) scale(0.100000,-0.100000)"
fill="#000" stroke="none">
<path d="M3269 6996 c-2 -2 -40 -7 -83 -10 -141 -12 -288 -37 -451 -78 -66
-17 -137 -34 -157 -39 -63 -15 -288 -99 -413 -155 -413 -182 -770 -429 -1105
-764 -188 -187 -339 -371 -474 -575 -51 -77 -96 -147 -99 -155 -4 -8 -18 -33
-32 -55 -44 -72 -132 -248 -179 -360 -26 -60 -51 -119 -55 -130 -22 -48 -102
-302 -117 -366 -2 -11 -6 -27 -8 -37 -2 -10 -11 -47 -20 -83 -9 -35 -25 -120
-35 -189 -11 -69 -23 -145 -27 -170 -4 -25 -9 -896 -11 -1936 l-4 -1891 1888
2 c1038 1 1899 5 1913 8 14 3 50 8 80 11 109 12 137 17 275 45 463 96 860 267
1275 550 52 35 107 74 121 85 14 12 43 35 65 51 220 170 496 454 681 700 366
488 612 1089 678 1655 4 30 9 69 11 85 3 17 6 136 8 265 3 212 -1 311 -19 457
-55 464 -199 901 -438 1328 -43 77 -168 267 -237 360 -127 170 -341 400 -506
543 -160 139 -428 326 -599 418 -72 39 -233 119 -280 139 -220 95 -380 148
-595 199 -113 27 -131 30 -229 46 -36 6 -67 12 -70 14 -3 2 -38 7 -78 11 -40
4 -85 9 -100 11 -35 6 -568 15 -574 10z m1359 -725 c20 -21 96 -100 167 -176
72 -76 145 -152 163 -170 17 -18 32 -38 32 -43 0 -6 -19 -25 -42 -44 -40 -30
-307 -248 -353 -286 -11 -10 -67 -55 -125 -102 -58 -47 -107 -87 -110 -90 -6
-6 4 2 -465 -379 -198 -161 -371 -303 -385 -315 -14 -11 -62 -50 -105 -86 -44
-36 -89 -73 -100 -82 -11 -9 -76 -62 -145 -118 -69 -56 -134 -109 -145 -118
-11 -9 -40 -33 -65 -52 -25 -19 -49 -40 -55 -45 -5 -6 -44 -38 -85 -71 -41
-32 -77 -61 -80 -64 -3 -3 -27 -23 -55 -45 -124 -99 -138 -115 -177 -193 -122
-245 133 -498 380 -379 49 24 74 44 192 157 148 142 428 410 470 450 26 25
127 122 225 215 98 94 195 186 215 205 20 19 115 110 211 201 96 92 199 191
230 220 31 30 135 128 230 219 95 91 185 176 199 190 42 40 384 367 393 376 4
4 97 -82 206 -193 l199 -200 -23 -26 c-12 -15 -103 -111 -202 -215 -99 -103
-198 -205 -219 -228 -22 -23 -111 -116 -199 -209 -88 -92 -180 -188 -204 -214
-24 -25 -125 -131 -225 -235 -99 -104 -192 -201 -206 -216 -14 -14 -104 -109
-202 -211 -97 -101 -193 -202 -213 -224 -21 -22 -115 -121 -210 -220 -286
-298 -303 -318 -334 -376 -72 -132 -41 -276 77 -366 97 -74 228 -74 339 0 47
31 130 130 693 822 45 55 89 109 98 120 9 11 46 56 81 100 36 44 70 85 76 91
5 6 24 28 40 50 17 21 62 76 100 123 39 47 102 124 140 171 38 47 71 87 75 90
3 3 21 25 40 50 19 25 37 47 40 50 3 3 43 52 90 110 47 58 93 114 102 125 9
11 72 88 139 170 67 83 136 168 155 190 18 22 66 81 107 132 l75 92 22 -19
c12 -10 91 -85 177 -167 85 -81 173 -165 196 -186 31 -28 39 -41 32 -51 -6 -8
-39 -57 -75 -108 -36 -52 -150 -217 -255 -367 -104 -149 -222 -318 -261 -374
-57 -83 -508 -730 -743 -1067 -29 -41 -145 -208 -257 -370 -113 -162 -212
-304 -220 -315 -8 -11 -58 -83 -112 -160 -174 -251 -298 -401 -459 -555 -293
-280 -600 -454 -960 -542 -87 -22 -97 -22 -1183 -25 l-1095 -4 1 1038 c1 571
4 1067 8 1103 32 297 166 600 395 890 119 152 414 438 566 548 6 4 28 21 50
38 22 17 69 51 105 76 36 25 218 151 405 281 187 130 345 240 350 244 6 5 62
44 125 88 63 43 174 120 245 170 72 51 166 117 210 147 198 136 501 347 511
356 6 5 28 21 50 35 21 14 226 156 454 316 228 159 419 290 423 291 5 0 25
-17 45 -39z"/>
</g>
</svg>
